<?xml version="1.0" standalone="no"?>
<!DOCTYPE svg PUBLIC "-//W3C//DTD SVG 20010904//EN"
 "http://www.w3.org/TR/2001/REC-SVG-20010904/DTD/svg10.dtd">
<svg version="1.0" xmlns="http://www.w3.org/2000/svg"
 width="600.000000pt" height="576.000000pt" viewBox="0 0 600.000000 576.000000"
 preserveAspectRatio="xMidYMid meet">
<g transform="translate(0.000000,576.000000) scale(0.100000,-0.100000)"
fill="#000000" stroke="none">
<path d="M3390 3890 c0 -5 5 -10 10 -10 6 0 10 5 10 10 0 6 -4 10 -10 10 -5 0
-10 -4 -10 -10z"/>
<path d="M3930 3881 c0 -6 -7 -8 -15 -5 -8 4 -15 2 -15 -3 0 -5 11 -9 24 -9
14 0 23 3 21 6 -2 4 2 7 10 7 8 0 12 -3 10 -7 -2 -3 6 -7 17 -7 14 -1 18 1 11
8 -14 14 -63 21 -63 10z"/>
<path d="M3855 3850 c-21 -23 -30 -54 -12 -43 7 4 8 0 4 -11 -4 -10 -7 -21 -7
-26 0 -4 -36 -11 -80 -15 -44 -4 -123 -13 -175 -19 -53 -7 -98 -9 -101 -5 -5
9 -24 7 -42 -5 -7 -4 -39 -11 -70 -16 -49 -6 -58 -5 -72 13 -10 11 -32 22 -53
24 -44 4 -89 -30 -91 -70 -1 -26 -29 -43 -218 -135 -5 -2 -8 6 -8 18 0 19 -3
20 -15 10 -8 -6 -19 -9 -25 -5 -6 4 -31 0 -56 -10 -52 -20 -100 -22 -134 -7
-32 13 -150 35 -157 28 -3 -2 -17 0 -31 5 -19 7 -34 5 -61 -7 -19 -9 -57 -19
-84 -21 -27 -2 -59 -10 -71 -18 -11 -8 -42 -19 -69 -26 -26 -6 -50 -15 -53
-20 -3 -5 -38 -9 -79 -9 -66 0 -105 -12 -73 -22 8 -3 6 -7 -5 -11 -10 -4 -17
-2 -17 5 0 6 -9 3 -19 -6 -19 -17 -19 -17 -15 1 4 15 -1 19 -25 21 -31 2 -43
-12 -18 -21 9 -4 9 -6 0 -6 -7 -1 -13 -7 -13 -13 0 -10 39 -13 163 -13 117 0
162 -3 162 -12 0 -6 3 -15 7 -19 4 -3 6 3 3 15 -5 25 25 30 45 6 12 -14 15
-14 31 1 19 17 44 11 33 -8 -4 -7 -2 -8 5 -4 6 4 8 13 4 19 -4 8 -1 7 9 -1 11
-9 18 -9 23 -3 3 6 22 8 43 5 20 -3 64 -8 97 -9 33 -2 60 -4 60 -5 0 -6 85 -4
107 1 15 4 30 3 34 -2 3 -5 11 -6 17 -2 19 12 59 17 183 22 20 1 21 4 12 41
-6 23 -9 42 -7 43 25 16 164 80 174 80 8 0 12 3 10 6 -2 4 8 12 21 18 21 10
27 9 37 -8 17 -27 83 -26 106 2 l17 21 70 -35 c38 -19 88 -46 112 -60 l43 -24
-53 -33 c-29 -18 -70 -46 -90 -62 l-37 -29 -218 -6 c-331 -8 -694 -9 -733 -2
-19 3 -47 2 -62 -2 -16 -4 -31 -3 -34 2 -3 6 -11 6 -17 1 -7 -5 -84 -10 -172
-11 -88 -1 -163 -5 -166 -9 -3 -4 -11 -20 -17 -35 l-12 -28 144 5 c141 5 145
4 141 -15 -4 -17 -2 -19 10 -9 17 14 20 24 5 15 -6 -3 -7 1 -4 9 3 9 11 14 17
13 7 -1 11 6 9 16 -3 16 0 17 17 7 12 -6 21 -7 21 -2 0 4 8 8 18 8 9 1 35 2
57 4 27 3 39 0 38 -8 -2 -7 2 -12 8 -12 5 0 7 -5 3 -12 -4 -6 -3 -8 4 -5 5 4
8 16 5 27 -5 17 0 20 26 20 19 0 34 -6 37 -15 4 -10 10 -12 18 -7 6 5 18 10
26 11 8 0 31 2 50 5 45 4 60 -2 60 -25 0 -10 5 -19 10 -19 11 0 14 -30 3 -31
-5 0 -16 -2 -25 -4 -13 -2 -18 3 -18 18 0 20 0 20 -15 1 -11 -14 -14 -15 -15
-4 0 10 -5 7 -16 -8 -8 -12 -22 -22 -31 -22 -12 0 -13 -3 -4 -14 8 -10 9 -16
1 -21 -6 -3 -8 -11 -5 -16 4 -5 1 -9 -4 -9 -6 0 -12 9 -12 20 -1 11 -2 26 -3
33 -2 20 -20 36 -31 26 -6 -4 -20 -7 -32 -6 -19 1 -20 3 -6 27 14 23 14 23 0
6 -9 -10 -21 -15 -28 -10 -7 4 -10 3 -5 -4 4 -6 -1 -11 -11 -11 -42 0 -82 -7
-90 -15 -4 -4 -1 -7 7 -6 43 6 180 -1 175 -9 -3 -6 -14 -8 -24 -6 -15 3 -19
-1 -16 -16 2 -10 -1 -21 -6 -25 -5 -3 -9 -2 -8 3 7 38 -1 43 -61 43 -56 0 -64
-4 -62 -31 0 -3 -8 -11 -20 -18 -11 -7 -17 -8 -14 -2 4 5 1 13 -5 17 -7 4 -9
3 -5 -4 10 -17 -11 -24 -33 -10 -18 11 -18 13 -3 26 9 7 12 11 6 8 -7 -3 -15
1 -18 9 -4 10 -14 14 -31 11 -18 -3 -25 -1 -22 7 2 7 9 12 15 12 7 0 12 4 12
10 0 13 -99 13 -110 -1 -7 -7 1 -10 27 -10 20 1 38 -3 40 -9 2 -6 -33 -11 -90
-11 -50 -1 -90 -6 -87 -10 3 -5 9 -8 14 -6 5 2 3 -4 -4 -14 -9 -10 -16 -12
-18 -5 -2 6 -10 11 -17 11 -15 0 -28 -27 -16 -34 5 -3 71 -4 148 -3 l140 2 -3
-112 -4 -113 218 5 c119 3 286 7 370 11 l152 6 -12 -29 c-6 -15 -16 -34 -21
-40 -13 -17 -8 -17 121 13 l114 26 -4 29 c-3 16 -2 29 1 29 3 0 36 -20 73 -43
l68 -43 -61 -45 c-105 -75 -106 -76 -93 -59 7 8 15 30 19 49 6 28 5 33 -8 28
-8 -3 -75 -22 -149 -42 -73 -20 -141 -39 -151 -41 -16 -5 -16 -2 3 47 12 28
19 53 18 54 -2 2 -43 -1 -93 -5 -49 -5 -141 -11 -204 -15 -63 -3 -131 -7 -150
-10 -147 -16 -188 -16 -194 -1 -3 8 -2 18 4 21 5 4 7 11 3 16 -3 5 -10 6 -16
3 -6 -4 -8 -3 -5 2 3 6 2 16 -3 23 -6 11 -28 4 -99 -33 l-91 -47 0 61 c0 35
-4 60 -11 60 -5 0 -7 6 -3 13 4 6 -5 1 -19 -12 -15 -14 -27 -21 -27 -16 0 5
-5 4 -12 -3 -7 -7 -16 -12 -22 -12 -5 0 -1 7 10 15 10 8 14 15 7 15 -6 0 -15
-5 -18 -10 -4 -6 -10 -8 -15 -5 -5 3 -12 0 -16 -6 -5 -8 -3 -9 6 -4 10 6 12 4
7 -8 -8 -22 6 -29 37 -17 28 10 56 4 56 -12 0 -6 -7 -5 -15 2 -24 20 -29 4 -7
-20 12 -13 18 -29 15 -38 -4 -10 -2 -13 5 -8 16 9 26 -12 13 -28 -7 -8 -22
-16 -34 -20 -21 -5 -21 -4 3 15 l25 20 -25 -6 c-19 -5 -21 -4 -10 4 12 8 10
15 -15 41 -21 22 -31 27 -37 18 -8 -13 -9 -11 -12 15 -2 19 -34 11 -122 -30
l-81 -38 13 -31 13 -30 98 48 c54 26 102 48 106 48 5 0 8 -19 6 -42 -1 -24 2
-51 6 -61 4 -9 5 -26 2 -37 -4 -15 22 -5 128 51 l133 70 -5 -91 c-5 -100 0
-128 20 -112 12 9 58 9 145 -2 40 -5 42 -4 42 22 0 44 34 89 85 111 41 18 53
19 94 9 61 -15 66 -19 87 -88 11 -33 24 -62 30 -64 6 -2 58 0 115 5 57 4 134
8 172 9 l67 0 0 36 c0 19 7 42 15 50 14 14 20 41 16 73 -2 7 2 10 8 6 6 -3 11
0 12 7 1 7 4 2 8 -12 6 -20 13 -24 43 -25 20 0 34 2 32 4 -3 3 6 11 18 19 19
11 20 12 3 8 -19 -6 -19 -5 -2 8 11 8 26 12 35 9 10 -4 13 -2 8 5 -4 7 -1 12
8 12 9 0 22 13 30 28 14 27 13 30 -12 59 -15 16 -32 28 -38 26 -6 -2 -21 5
-34 15 -16 13 -19 19 -9 20 8 1 34 3 58 5 29 2 48 10 58 23 14 19 14 19 29 0
8 -11 14 -23 14 -28 0 -4 3 -7 8 -6 16 4 81 -26 75 -36 -4 -5 1 -7 10 -3 10 3
17 2 17 -4 0 -6 10 -9 23 -7 17 2 21 -1 20 -17 -4 -28 6 -65 16 -65 11 0 9 19
-3 38 -7 11 -4 12 13 3 18 -10 21 -8 27 14 4 17 13 25 28 25 15 0 27 9 34 26
10 21 14 23 26 11 17 -16 18 -236 1 -234 -5 1 -9 -4 -7 -12 3 -12 1 -12 -13
-1 -13 11 -13 15 -3 22 10 7 10 8 -2 5 -8 -2 -14 -10 -12 -17 1 -6 -6 -14 -17
-17 -13 -3 -18 -10 -13 -21 5 -15 4 -16 -13 -2 -10 8 -16 10 -12 4 4 -7 0 -15
-9 -18 -8 -3 -12 -2 -9 4 3 6 0 10 -8 10 -10 0 -13 -7 -10 -20 4 -16 2 -19
-11 -14 -11 4 -15 15 -13 33 3 14 0 32 -6 39 -6 8 -6 12 3 12 10 0 10 3 0 15
-7 9 -19 14 -26 11 -8 -3 -13 -2 -13 2 3 20 -2 33 -11 27 -6 -3 -13 1 -16 9
-3 9 -10 13 -15 10 -5 -3 -9 1 -9 8 0 9 -3 9 -10 -2 -8 -13 -10 -12 -10 3 0
17 -1 17 -16 3 -8 -9 -22 -16 -30 -16 -17 0 -19 26 -1 33 9 4 9 6 0 6 -13 1
-36 -33 -28 -41 3 -3 -2 -5 -10 -5 -8 0 -11 5 -8 10 3 6 1 7 -5 3 -5 -3 -13 0
-16 6 -3 7 -3 2 0 -11 5 -20 3 -23 -10 -18 -10 4 -15 3 -11 -3 7 -11 -18 -40
-34 -40 -6 0 -11 -10 -11 -22 0 -30 -15 -52 -29 -44 -6 4 -11 3 -11 -2 0 -7
-58 -9 -78 -3 -1 1 2 10 8 21 13 24 7 26 -13 6 -9 -9 -12 -26 -9 -42 4 -24 8
-26 41 -20 20 3 50 6 67 6 27 0 32 5 42 39 18 59 72 96 140 96 48 0 57 -3 78
-30 13 -16 31 -49 40 -72 15 -38 20 -43 50 -44 19 -1 40 -2 47 -3 6 -1 18 3
26 8 8 6 16 10 18 9 8 -7 30 -1 46 12 17 12 19 28 18 156 -2 123 1 144 16 163
l18 21 -22 -19 c-13 -11 -23 -16 -23 -11 0 17 35 34 48 23 9 -8 21 -1 46 26
19 20 37 36 39 36 4 0 1 -54 -7 -132 l-4 -36 87 62 c118 86 166 114 159 94 -4
-8 -10 -36 -13 -62 l-7 -47 43 29 c24 16 59 38 78 48 68 38 196 127 173 121
-12 -3 -20 -1 -17 4 5 6 -71 50 -95 54 -3 0 -27 11 -55 23 -27 13 -52 23 -55
23 -3 0 -13 8 -22 16 -10 9 -18 13 -18 9 0 -5 -16 1 -35 13 -33 19 -46 17 -26
-5 5 -5 18 -30 29 -56 l20 -47 -45 -22 c-25 -12 -61 -36 -80 -52 -29 -26 -34
-27 -31 -11 1 10 10 25 18 32 8 8 9 11 3 7 -9 -4 -13 2 -13 17 0 18 2 20 10 8
7 -12 9 -10 7 7 0 12 -4 20 -8 17 -4 -2 -6 4 -4 13 1 10 1 21 -1 25 -2 3 -61
-23 -130 -59 -108 -55 -126 -62 -121 -44 3 12 1 19 -3 16 -5 -3 -14 21 -20 52
-7 32 -18 69 -25 83 -21 39 -85 84 -122 85 -17 1 -30 -1 -28 -5 3 -5 -41 -6
-70 -2 -5 1 19 23 54 48 34 25 65 43 67 41 3 -3 -18 -20 -45 -38 -28 -18 -51
-33 -51 -35 0 -1 7 -4 15 -8 8 -3 14 -2 12 3 -2 9 130 101 145 101 6 0 36 -14
68 -31 78 -41 82 -64 24 -127 -24 -26 -44 -55 -44 -64 0 -10 2 -18 4 -18 2 0
30 25 63 55 32 30 63 55 70 55 6 0 17 -25 24 -55 7 -31 16 -58 21 -61 17 -11
20 27 5 70 -14 41 -14 45 6 65 19 19 20 23 6 52 -15 31 -14 35 35 135 l50 104
40 0 c54 1 81 35 81 102 0 64 -29 96 -86 93 -22 -1 -42 2 -45 7 -8 13 -20 10
-39 -12z m20 -10 c-10 -11 -23 -20 -28 -20 -6 0 -2 9 8 20 10 11 23 20 28 20
6 0 2 -9 -8 -20z m107 -25 c10 -4 15 -12 12 -17 -4 -6 -1 -14 7 -18 10 -7 9
-16 -6 -49 -10 -23 -21 -41 -24 -42 -3 0 -20 -1 -37 -2 -29 -2 -30 -1 -18 19
12 18 12 21 -1 21 -8 0 -12 -4 -10 -8 3 -3 -2 -12 -10 -19 -12 -10 -15 -9 -15
4 0 11 -5 15 -12 10 -7 -4 -10 -4 -6 1 4 4 2 15 -5 23 -10 13 -8 14 13 9 14
-4 19 -4 13 -1 -7 3 -13 12 -13 20 0 8 6 14 13 14 8 0 8 3 2 8 -15 10 -13 31
4 41 12 8 56 2 93 -14z m-142 -90 c0 -8 -33 -33 -72 -56 -116 -66 -149 -89
-143 -99 3 -5 0 -7 -8 -4 -8 3 -20 -3 -28 -12 -9 -12 -10 -15 -1 -10 7 4 12 2
12 -4 0 -6 -8 -9 -17 -6 -32 10 -263 138 -263 145 0 4 19 8 43 9 23 1 74 6
112 12 39 6 80 8 92 6 13 -3 25 -1 28 5 4 5 32 9 63 10 46 1 130 9 175 18 4 0
7 -6 7 -14z m-548 -29 c3 -5 5 -18 3 -28 -2 -10 1 -18 7 -18 7 0 3 -6 -7 -14
-11 -8 -23 -12 -26 -10 -4 2 -9 -3 -12 -10 -8 -21 -56 -6 -76 24 -10 14 -11
21 -3 16 7 -4 12 -2 13 6 1 7 2 19 3 26 2 24 47 41 70 28 12 -6 24 -15 28 -20z
m552 -96 c-18 -39 -40 -86 -48 -105 -11 -25 -19 -33 -31 -29 -8 4 -21 1 -29
-5 -11 -9 -26 -4 -70 22 l-55 34 67 50 c37 28 85 62 107 75 22 14 47 33 55 43
13 15 15 16 26 0 10 -13 6 -29 -22 -85z m-1342 -63 c-5 -21 -5 -21 12 -4 19
19 61 23 71 7 3 -5 12 -10 18 -10 7 0 6 4 -3 10 -8 5 -10 10 -4 10 5 0 19 -6
29 -14 11 -8 29 -12 42 -10 14 3 27 -3 37 -18 9 -12 16 -17 16 -10 0 12 26 12
48 -1 6 -5 12 -4 12 1 0 11 70 33 83 25 6 -4 7 -1 2 7 -5 8 -3 11 6 8 8 -3 13
-11 11 -17 -1 -7 2 -10 8 -6 6 3 8 11 5 16 -4 5 -2 9 3 9 15 0 22 -28 9 -34
-9 -3 -8 -8 3 -15 13 -10 13 -12 0 -21 -11 -7 -11 -10 -2 -10 7 0 11 -4 7 -9
-3 -6 -15 -8 -27 -6 -11 3 -26 1 -32 -2 -6 -4 -26 -8 -46 -9 -19 0 -39 -2 -45
-4 -27 -7 -44 2 -47 25 l-3 25 -12 -25 c-8 -19 -8 -23 0 -18 7 3 9 2 4 -2 -11
-12 -47 -14 -40 -2 3 6 1 7 -6 3 -16 -10 -122 -13 -127 -4 -9 13 -26 9 -18 -4
4 -7 3 -9 -1 -5 -5 4 -11 20 -13 35 -5 38 -12 41 -12 4 0 -30 -21 -45 -33 -24
-3 4 -35 7 -71 7 -36 0 -66 4 -66 8 0 5 -6 5 -12 0 -7 -4 -49 -9 -93 -10 l-80
-1 39 20 c38 19 59 26 103 32 13 2 29 9 38 16 8 7 15 9 15 6 0 -4 5 -4 12 0
11 7 51 15 86 17 6 0 12 4 12 9 0 5 5 6 10 3 16 -10 0 -27 -17 -20 -13 5 -14
3 -3 -10 12 -15 14 -15 24 2 6 10 11 21 12 26 3 12 3 13 23 14 15 1 17 -3 13
-20z m1098 -21 c0 -2 -7 -7 -16 -10 -8 -3 -12 -2 -9 4 6 10 25 14 25 6z m-66
-41 c-10 -8 -23 -14 -29 -14 -5 -1 1 8 15 19 14 10 27 17 29 14 3 -2 -4 -11
-15 -19z m-1451 -32 c-7 -2 -19 -2 -25 0 -7 3 -2 5 12 5 14 0 19 -2 13 -5z
m1697 -14 c0 -5 5 -7 12 -3 6 4 8 3 5 -3 -4 -6 -19 -9 -34 -7 -25 3 -24 3 4
-6 29 -9 31 -13 21 -30 -7 -10 -16 -16 -21 -13 -5 3 -3 9 4 14 8 5 9 9 4 9 -6
0 -17 -6 -24 -12 -10 -11 -12 -10 -9 2 2 8 -3 14 -10 12 -13 -2 -10 9 11 36
12 15 37 16 37 1z m-1460 -15 c0 -8 -19 -13 -24 -6 -3 5 1 9 9 9 8 0 15 -2 15
-3z m633 -79 c15 -2 27 -1 27 3 0 5 16 8 35 8 23 0 34 -4 31 -11 -6 -16 11
-41 21 -31 4 5 2 11 -4 13 -10 4 -9 8 1 19 19 18 30 18 22 -1 -3 -8 -1 -15 3
-15 5 0 11 5 13 11 2 6 23 12 46 14 40 3 42 2 42 -23 0 -20 3 -23 9 -13 5 8 7
21 4 30 -4 13 -3 14 5 2 9 -12 13 -12 26 -2 9 8 16 9 16 4 0 -6 -10 -15 -22
-21 -13 -6 -17 -11 -10 -11 6 -1 21 8 31 18 17 17 33 20 116 18 57 -1 94 -6
93 -12 -2 -5 -7 -9 -11 -7 -5 1 -5 -3 -1 -10 17 -26 11 -34 -30 -35 -22 -1
-49 -4 -59 -6 -21 -4 -47 -27 -30 -27 6 0 14 6 16 13 4 9 6 9 6 0 1 -7 -8 -17
-18 -22 -23 -13 -36 9 -18 30 10 11 9 11 -5 0 -13 -10 -18 -10 -18 -2 0 7 -5
9 -10 6 -6 -4 -22 1 -35 9 -14 9 -25 13 -25 9 0 -5 -34 -8 -76 -8 -55 0 -78
-4 -82 -13 -4 -11 -6 -11 -13 0 -7 10 -9 11 -9 0 0 -7 -5 -10 -10 -7 -6 4 -8
10 -5 15 3 6 -14 8 -40 6 -25 -2 -45 1 -45 6 0 5 -6 6 -12 1 -7 -4 -30 -8 -51
-9 -20 0 -48 -7 -62 -14 -15 -8 -29 -10 -38 -4 -7 5 -4 1 6 -8 17 -16 17 -18
3 -18 -10 0 -14 -5 -11 -11 12 -18 17 -117 7 -123 -6 -3 -12 1 -16 9 -3 8 -2
15 2 15 4 0 8 9 9 20 1 11 -1 18 -5 16 -4 -3 -8 10 -9 27 -3 68 -11 81 -51 83
-15 1 -32 2 -38 3 -13 1 -28 50 -19 59 3 4 10 0 15 -8 8 -12 10 -12 10 -2 0
11 14 13 58 10 31 -2 68 -2 82 2 25 6 80 4 133 -5z m544 -4 c-4 -16 0 -18 19
-15 17 3 24 0 24 -11 0 -9 -5 -13 -11 -10 -5 4 -19 -1 -30 -11 -18 -17 -19
-16 -19 24 0 24 5 42 11 42 6 0 9 -9 6 -19z m-1512 -1 c3 -5 -1 -10 -9 -10 -9
0 -16 5 -16 10 0 6 4 10 9 10 6 0 13 -4 16 -10z m209 -1 c-2 -5 -27 -7 -55 -5
-27 1 -52 -1 -55 -6 -3 -4 -14 -3 -25 3 -15 8 -25 7 -37 -3 -15 -11 -15 -11
-5 3 10 12 32 15 97 16 47 0 83 -4 80 -8z m1381 -59 c10 -11 15 -20 12 -20 -3
0 0 -18 8 -39 13 -39 11 -51 -8 -51 -6 0 -7 3 -4 7 4 3 1 13 -6 21 -9 13 -9
14 1 8 24 -15 11 8 -27 45 -38 37 -38 41 0 48 3 0 14 -8 24 -19z m-1415 4 c0
-8 -19 -13 -24 -6 -3 5 1 9 9 9 8 0 15 -2 15 -3z m1925 -45 c-3 -4 -1 -10 4
-14 6 -3 8 3 6 15 -2 11 0 20 6 20 5 0 9 -5 9 -11 0 -5 5 -7 10 -4 6 3 10 1
10 -5 0 -6 5 -8 12 -4 7 4 8 3 4 -4 -4 -7 -2 -12 3 -12 19 0 12 -17 -8 -23
-14 -3 -18 -1 -14 9 6 16 -12 19 -22 5 -3 -5 5 -17 17 -25 14 -10 24 -12 26
-6 3 7 9 6 20 -2 13 -11 14 -10 8 15 -4 16 -2 27 4 27 5 0 10 -5 10 -11 0 -5
5 -7 11 -3 7 4 7 -1 -1 -16 -10 -19 -10 -22 3 -17 9 3 19 -3 26 -19 6 -15 7
-24 1 -24 -6 0 -10 6 -10 13 0 8 -4 7 -10 -3 -5 -8 -10 -10 -10 -5 -1 6 -5 0
-10 -12 -6 -14 -15 -21 -24 -17 -9 3 -17 -2 -21 -15 -3 -11 -9 -20 -13 -19 -4
1 -18 -4 -32 -12 -14 -7 -27 -13 -30 -13 -3 1 -4 -3 -2 -9 1 -5 -2 -7 -7 -4
-10 7 -9 45 2 63 9 15 0 18 -43 18 -21 0 -34 -5 -33 -12 1 -6 -4 -14 -13 -17
-10 -4 -13 -1 -9 7 4 6 0 4 -9 -7 -8 -10 -20 -15 -27 -10 -7 4 -10 3 -5 -4 3
-6 -2 -13 -13 -17 -11 -3 -22 -14 -24 -23 -4 -13 -5 -12 -6 5 0 12 5 24 12 26
9 4 9 6 -1 6 -7 1 -17 -11 -22 -25 -6 -14 -14 -22 -20 -19 -6 3 -7 -1 -4 -9 4
-9 1 -16 -6 -16 -8 0 -10 8 -7 22 9 32 -27 106 -50 105 -11 -1 -18 4 -17 15 1
10 -3 15 -9 11 -6 -3 -7 -1 -3 5 4 7 19 12 34 12 21 0 24 2 12 10 -9 6 -10 10
-3 10 19 0 27 -21 12 -31 -11 -7 -11 -9 2 -9 19 0 32 37 15 43 -6 2 1 6 16 9
29 6 33 -8 8 -30 -13 -12 -13 -13 1 -9 13 4 15 1 12 -14 -3 -10 -9 -16 -14
-13 -5 3 -6 -2 -3 -11 4 -8 2 -21 -2 -28 -5 -7 -2 -5 7 4 15 17 17 16 38 -4
17 -17 21 -18 15 -4 -4 10 -1 17 7 17 7 0 21 8 32 18 15 12 18 13 12 2 -8 -15
-6 -13 53 40 12 11 22 16 22 11 0 -5 11 -11 25 -13 13 -3 22 -1 19 3 -3 5 -13
9 -22 9 -14 0 -15 2 -2 9 8 6 18 7 22 5 4 -3 5 2 1 11 -5 13 -7 14 -14 3 -13
-19 -11 0 2 24 9 17 9 20 -3 15 -11 -4 -14 1 -10 19 l4 24 19 -21 c10 -12 16
-25 14 -30z m-1350 -39 c0 -36 1 -69 4 -75 10 -18 12 -55 4 -56 -4 -1 -46 -3
-93 -4 -47 -1 -92 -4 -100 -6 -11 -3 -14 3 -12 21 1 14 3 59 5 100 l2 75 60 5
c33 3 76 5 96 5 l36 0 -2 -65z m285 -40 c0 -107 -1 -111 -20 -105 -11 3 -54 7
-96 7 -55 0 -77 4 -81 15 -3 7 -16 12 -31 11 -15 -2 -27 3 -30 12 -3 8 -1 12
3 8 5 -4 14 -3 21 3 8 7 14 7 19 -1 5 -8 13 -6 26 6 12 11 19 13 19 5 0 -7 4
-9 10 -6 6 3 7 -1 4 -9 -3 -9 -10 -16 -16 -16 -5 0 -6 5 -2 12 4 7 3 8 -4 4
-19 -12 -2 -33 23 -28 17 3 22 9 20 23 -2 11 0 17 6 14 5 -4 9 -1 9 4 0 6 5
11 12 11 9 0 9 -3 0 -12 -15 -15 -16 -38 -1 -38 5 0 7 4 4 10 -3 6 1 7 10 3
14 -5 14 -8 3 -15 -10 -8 -10 -9 2 -5 21 5 25 61 6 80 -8 8 -12 17 -9 20 3 3
7 20 8 37 2 23 -1 30 -11 26 -7 -3 -16 -1 -19 4 -12 20 -40 3 -40 -25 0 -29
28 -44 42 -23 3 6 1 8 -5 4 -5 -3 -9 0 -8 6 2 17 21 21 22 6 0 -7 -4 -22 -10
-33 -6 -11 -10 -24 -11 -29 0 -14 -36 -16 -40 -3 -3 7 -6 26 -9 42 -2 17 -5
32 -6 35 -1 3 -1 10 0 15 1 6 -2 6 -6 2 -12 -12 -14 -38 -2 -31 7 5 8 2 2 -7
-4 -8 -9 -25 -10 -39 -3 -55 -3 -55 -16 -42 -8 8 -9 15 -3 20 6 4 10 32 9 62
0 30 1 57 2 60 1 3 48 6 103 8 l101 3 0 -111z m227 100 l45 0 -5 -87 c-3 -50
-1 -96 5 -107 6 -10 6 -16 1 -13 -6 4 -55 7 -111 8 l-102 2 0 105 0 105 61 -7
c34 -3 82 -6 106 -6z m283 -16 c16 -16 70 -202 70 -240 0 -27 -84 -16 -169 22
l-81 37 1 73 c1 41 4 72 8 69 4 -2 8 2 8 10 0 8 -4 12 -8 10 -4 -3 -6 3 -5 12
5 34 144 40 176 7z m-1403 -21 c0 -17 -15 -16 -33 2 -14 13 -13 15 9 13 13 -1
24 -8 24 -15z m63 6 c0 -6 -4 -8 -9 -4 -5 3 -12 1 -16 -5 -4 -6 -11 -8 -16 -4
-5 3 -7 9 -5 13 7 11 46 11 46 0z m150 3 c0 -5 -7 -9 -15 -9 -8 0 -12 4 -9 9
3 4 9 8 15 8 5 0 9 -4 9 -8z m122 -21 c-10 -9 -13 -13 -8 -8 17 12 21 8 21
-23 0 -16 -4 -28 -10 -26 -5 2 -9 8 -8 13 1 5 -25 9 -57 9 -51 0 -58 -3 -54
-19 2 -11 -2 -17 -9 -14 -7 2 -12 10 -12 18 0 8 -6 14 -14 14 -33 0 -18 21 16
23 20 2 39 5 41 7 2 2 17 -1 33 -5 27 -8 41 -1 45 23 1 4 2 9 3 12 0 2 8 2 16
-1 13 -5 12 -8 -3 -23z m430 15 c-4 -6 -7 -14 -7 -18 0 -19 -11 -14 -11 6 0
12 6 23 13 23 6 0 9 -5 5 -11z m163 -6 c3 -5 1 -10 -4 -10 -6 0 -11 5 -11 10
0 6 2 10 4 10 3 0 8 -4 11 -10z m275 -5 c0 -8 -2 -15 -4 -15 -2 0 -6 7 -10 15
-3 8 -1 15 4 15 6 0 10 -7 10 -15z m916 -31 c-7 -18 5 -26 21 -13 8 7 13 8 13
1 0 -19 -34 -24 -47 -6 -17 23 -16 31 2 31 9 0 14 -6 11 -13z m-1986 -10 c0
-8 -4 -13 -8 -10 -5 3 -9 -1 -9 -9 0 -8 4 -12 8 -10 4 3 10 -2 13 -11 3 -8 2
-13 -2 -10 -5 3 -8 -7 -8 -22 1 -19 -3 -26 -14 -24 -8 2 -12 1 -8 -3 3 -4 8
-5 10 -3 2 2 17 -5 32 -16 16 -10 25 -12 20 -5 -4 7 6 3 23 -9 20 -14 34 -18
38 -12 4 6 11 8 16 4 6 -4 6 -11 -2 -20 -6 -7 -15 -11 -20 -8 -5 3 -9 -1 -9
-8 0 -10 -2 -10 -9 0 -9 15 -17 15 -43 1 -10 -6 -19 -5 -23 1 -3 5 -12 7 -21
3 -16 -6 -16 17 1 29 6 4 2 8 -7 8 -15 0 -17 6 -12 38 3 20 8 39 10 41 2 2 -1
12 -6 22 -7 13 -6 22 6 33 19 20 24 20 24 0z m255 -48 c0 -35 -3 -62 -6 -60
-4 2 -6 24 -5 49 1 25 -1 45 -6 45 -4 0 -5 7 -2 15 12 31 19 13 19 -49z m812
57 c-4 -3 -1 -13 6 -22 11 -14 10 -14 -5 -2 -16 12 -16 31 -1 31 4 0 3 -3 0
-7z m-1012 -22 c-3 -2 2 -13 11 -23 14 -14 14 -20 4 -33 -13 -15 -30 -12 -30
6 0 6 4 8 9 4 5 -3 13 0 17 6 5 8 3 9 -6 4 -9 -6 -11 -4 -5 5 6 9 4 11 -5 5
-8 -5 -11 -4 -6 3 3 6 3 13 -2 16 -4 2 -8 -13 -8 -34 0 -29 3 -37 15 -35 9 1
24 -2 35 -7 11 -6 16 -6 13 -1 -4 5 0 10 8 10 8 0 13 -3 12 -6 -1 -3 3 -7 8
-7 6 -1 9 2 8 7 -4 13 11 11 25 -3 20 -20 38 -17 38 8 0 16 -3 20 -11 14 -12
-10 -25 -4 -25 12 0 5 4 7 9 4 5 -3 15 1 22 10 7 8 8 14 3 13 -5 -1 -11 0 -14
1 -3 1 -19 3 -37 4 -27 2 -31 0 -27 -20 2 -13 0 -25 -6 -29 -6 -4 -7 1 -4 12
5 17 5 17 -6 1 -6 -10 -16 -18 -23 -18 -8 0 -7 3 2 9 8 5 15 22 15 37 2 26 5
29 42 30 56 1 80 -20 79 -71 l0 -39 -53 -3 c-28 -2 -52 1 -52 6 0 6 -10 8 -21
6 -12 -3 -27 -1 -33 3 -6 4 -15 7 -21 7 -5 0 -11 21 -11 47 -2 40 1 46 17 45
10 -1 16 -3 14 -6z m1312 -54 c-2 -6 -9 -13 -17 -15 -7 -3 -10 0 -6 7 4 6 4
17 -1 24 -17 27 -11 41 8 18 11 -13 18 -29 16 -34z m132 4 c0 -11 -2 -12 -6
-3 -7 18 -23 4 -16 -16 3 -11 0 -9 -11 5 -14 18 -15 27 -5 45 11 21 12 21 25
3 8 -10 14 -26 13 -34z m-431 4 c-3 -29 -11 -23 -16 11 -2 16 1 23 7 19 6 -3
10 -17 9 -30z m-891 10 c5 -4 3 -5 -4 -1 -6 3 -15 2 -18 -4 -9 -14 14 -42 28
-33 6 4 7 1 3 -6 -6 -9 -12 -8 -26 4 -10 9 -23 14 -28 11 -6 -4 -9 34 -3 40 4
4 42 -4 48 -11z m1259 -4 c-3 -5 1 -11 9 -15 20 -7 19 -22 -1 -30 -12 -4 -15
-2 -11 9 4 8 2 17 -4 20 -5 4 -8 1 -7 -7 2 -8 -5 -12 -17 -10 -18 2 -17 0 5
-18 l25 -20 -28 4 c-15 3 -25 1 -22 -4 7 -12 -12 -23 -26 -14 -8 4 -7 9 2 15
11 7 11 9 1 9 -9 0 -8 7 4 25 9 14 20 23 24 20 4 -2 16 2 26 10 22 17 27 18
20 6z m-903 -58 c-10 -10 -13 -14 -7 -10 7 5 30 3 52 -3 22 -5 47 -7 56 -4 10
4 18 0 22 -10 3 -9 11 -13 17 -9 7 4 27 6 46 4 25 -2 39 3 55 21 12 13 17 17
11 9 -8 -11 -7 -13 4 -7 8 5 16 4 21 -4 4 -6 18 -13 32 -13 l24 -2 -19 -33
c-15 -25 -22 -30 -28 -20 -7 10 -9 10 -9 0 0 -7 -6 -12 -12 -11 -7 1 -25 -3
-40 -9 -34 -14 -57 -6 -51 17 2 9 -4 24 -13 32 -14 11 -16 11 -10 1 7 -11 4
-12 -10 -4 -11 5 -79 8 -152 6 -100 -2 -132 0 -129 9 2 7 14 14 26 15 15 2 21
0 17 -7 -4 -6 0 -11 9 -11 9 0 13 5 10 10 -3 6 3 10 14 10 11 0 24 6 28 14 8
12 28 23 47 25 4 1 0 -7 -11 -16z m972 7 c-3 -5 -16 -15 -28 -21 -21 -10 -21
-9 2 10 25 23 36 27 26 11z m-1227 -26 c12 -4 22 -13 22 -21 0 -12 -10 -14
-40 -11 -22 2 -41 -1 -43 -7 -2 -6 -10 -5 -21 4 -15 13 -15 15 6 26 27 15 44
17 76 9z m-111 -18 c-3 -8 -1 -17 6 -19 7 -2 -5 -5 -26 -5 -30 0 -36 3 -27 13
6 8 18 11 26 8 8 -3 14 0 14 6 0 6 3 11 6 11 3 0 4 -6 1 -14z m213 -2 c0 -9
-11 -14 -33 -14 -45 0 -45 26 0 27 22 1 33 -4 33 -13z m910 -69 c0 -8 -4 -15
-8 -15 -5 0 -9 7 -9 15 0 8 4 15 9 15 4 0 8 -7 8 -15z m-1389 -44 c2 2 13 -3
24 -9 19 -11 19 -12 -2 -9 -12 2 -25 6 -29 9 -8 8 -34 -2 -34 -13 0 -4 8 -5
17 -2 15 6 16 5 3 -9 -13 -14 -16 -14 -23 -1 -10 17 24 57 34 41 3 -5 8 -8 10
-7z m-331 -11 c0 -5 -8 -10 -17 -10 -15 0 -16 2 -3 10 19 12 20 12 20 0z m270
-10 c0 -5 -4 -10 -10 -10 -5 0 -10 5 -10 10 0 6 5 10 10 10 6 0 10 -4 10 -10z
m710 -5 c11 -13 10 -18 -6 -30 -13 -10 -14 -14 -5 -15 8 0 11 -6 7 -16 -3 -8
-2 -12 3 -9 5 3 12 1 16 -5 6 -10 60 -8 72 3 11 12 53 7 54 -5 0 -7 4 -3 9 10
5 12 18 22 29 22 11 0 26 3 35 6 12 4 14 -1 11 -25 -2 -17 0 -31 5 -31 6 0 10
16 10 35 0 48 16 44 18 -4 2 -29 -2 -42 -14 -49 -10 -5 -18 -18 -19 -28 -2
-29 -13 -42 -33 -39 -61 12 -82 14 -77 5 4 -6 -21 -8 -65 -6 -38 3 -68 1 -65
-3 2 -5 -16 -8 -40 -8 -45 0 -49 4 -48 44 1 7 -4 10 -9 7 -6 -4 -8 2 -3 15 5
17 3 20 -12 14 -16 -6 -17 -5 -3 12 14 17 13 18 -3 12 -11 -4 -16 -3 -12 4 4
6 -2 13 -14 16 -11 3 -18 9 -15 14 3 5 -4 10 -15 10 -20 1 -32 4 -48 9 -5 1
-11 2 -15 1 -5 0 -8 4 -8 9 0 6 -7 10 -16 10 -8 0 -12 -5 -8 -11 4 -8 -1 -9
-16 -4 -14 5 -20 3 -16 -3 3 -6 -12 -19 -33 -29 -38 -17 -81 -75 -81 -109 0
-10 -14 -13 -55 -11 -30 1 -55 5 -55 10 0 4 -5 7 -11 7 -5 0 -7 -5 -3 -11 4
-7 -1 -7 -16 1 -16 9 -20 17 -15 33 3 12 6 27 6 32 -7 72 -5 80 13 83 14 3 17
0 13 -12 -4 -9 -2 -16 3 -16 6 0 10 7 10 15 0 10 11 15 33 16 17 0 57 3 87 5
30 3 96 6 145 8 50 2 90 5 90 6 0 1 31 3 69 5 38 2 71 7 74 10 10 10 29 5 42
-10z m-714 -18 c22 8 16 -5 -7 -18 -15 -8 -19 -8 -15 0 4 6 2 11 -3 11 -6 0
-11 -7 -11 -15 0 -13 -18 -20 -42 -16 -5 0 -8 -6 -8 -14 0 -8 -7 -15 -15 -15
-8 0 -15 -5 -15 -11 0 -5 -5 -7 -12 -3 -9 6 -9 9 0 12 7 2 10 7 7 11 -2 5 7
14 20 21 14 7 25 17 25 22 0 13 44 27 54 18 5 -5 15 -6 22 -3z m-342 -12 c-6
-16 -24 -21 -24 -7 0 11 11 22 21 22 5 0 6 -7 3 -15z m1897 -109 c7 17 8 17 8
2 1 -23 -32 -41 -47 -26 -9 9 -12 8 -12 -5 0 -12 -7 -16 -24 -15 -14 1 -22 6
-20 10 3 5 9 6 14 3 4 -3 15 7 24 20 16 24 18 24 33 9 16 -15 17 -15 24 2z"/>
<path d="M3895 3771 c-3 -5 -2 -12 3 -15 5 -3 9 1 9 9 0 17 -3 19 -12 6z"/>
<path d="M3660 3660 c-9 -6 -10 -10 -3 -10 6 0 15 5 18 10 8 12 4 12 -15 0z"/>
<path d="M2260 3481 c0 -6 4 -13 10 -16 6 -3 7 1 4 9 -7 18 -14 21 -14 7z"/>
<path d="M2227 3463 c3 -7 6 -13 8 -13 2 0 5 6 8 13 3 8 -1 14 -8 14 -7 0 -11
-6 -8 -14z"/>
<path d="M2196 3462 c-3 -5 1 -9 9 -9 8 0 12 4 9 9 -3 4 -7 8 -9 8 -2 0 -6 -4
-9 -8z"/>
<path d="M3100 3300 c-13 -8 -12 -10 3 -10 9 0 17 5 17 10 0 12 -1 12 -20 0z"/>
<path d="M3550 3261 c0 -5 8 -15 18 -22 15 -12 16 -12 5 2 -7 9 -10 19 -6 22
3 4 1 7 -5 7 -7 0 -12 -4 -12 -9z"/>
<path d="M4094 3159 c-4 -8 -3 -9 4 -5 16 10 15 -7 0 -23 -8 -9 -8 -11 -2 -8
7 4 14 -3 18 -18 7 -28 25 -34 22 -7 0 10 6 16 16 16 10 -1 15 2 12 8 -3 5
-14 6 -25 3 -14 -5 -19 -2 -19 14 0 24 -16 36 -26 20z"/>
<path d="M4015 3150 c-3 -5 -1 -10 4 -10 6 0 11 5 11 10 0 6 -2 10 -4 10 -3 0
-8 -4 -11 -10z"/>
<path d="M4045 3139 c-4 -6 -5 -12 -2 -15 2 -3 7 2 10 11 7 17 1 20 -8 4z"/>
<path d="M4089 3063 c-13 -16 -12 -17 4 -4 16 13 21 21 13 21 -2 0 -10 -8 -17
-17z"/>
<path d="M3850 3059 c0 -5 5 -7 10 -4 6 3 10 8 10 11 0 2 -4 4 -10 4 -5 0 -10
-5 -10 -11z"/>
<path d="M2585 3229 c-4 -5 -12 -6 -18 -2 -8 5 -8 2 0 -9 7 -8 10 -18 6 -22
-10 -9 -11 -106 -1 -100 12 7 10 -10 -2 -22 -20 -20 37 -9 59 10 21 19 30 9
11 -10 -8 -8 -3 -11 17 -9 20 1 28 6 28 20 0 10 7 20 15 22 11 4 12 2 2 -4
-10 -7 -8 -13 7 -27 13 -12 21 -14 26 -6 3 6 1 9 -6 8 -6 -2 -14 3 -17 11 -2
8 0 11 5 8 12 -7 11 59 -1 70 -5 4 -6 3 -2 -4 9 -16 -10 -17 -20 -2 -7 11 15
31 26 24 3 -2 6 7 6 20 0 13 -4 21 -8 19 -5 -3 -5 -10 -2 -16 4 -6 1 -9 -7 -6
-8 3 -14 11 -14 18 0 15 -32 23 -41 9 -3 -5 -10 -7 -15 -4 -18 12 -49 14 -54
4z m50 -9 c6 -1 12 -1 15 0 18 7 39 7 35 0 -3 -5 -1 -12 5 -15 8 -5 7 -11 -1
-21 -8 -10 -9 -18 0 -27 6 -8 7 -18 3 -22 -4 -5 0 -6 9 -3 9 4 16 1 16 -8 0
-7 -4 -11 -9 -8 -13 8 -40 -17 -34 -31 2 -6 -2 -12 -10 -12 -7 0 -11 4 -8 9 3
5 0 16 -8 25 -11 14 -11 16 1 8 10 -6 12 -4 6 5 -5 8 -4 11 1 7 6 -3 10 12 10
33 0 23 -4 36 -9 33 -6 -4 -7 0 -2 8 6 11 5 12 -6 2 -15 -15 -33 -17 -24 -4 3
5 0 13 -6 17 -8 5 -9 3 -4 -6 5 -9 4 -11 -4 -6 -6 4 -11 4 -10 -1 1 -4 0 -10
-1 -13 -2 -3 -3 -23 -4 -46 -1 -26 2 -41 11 -41 6 0 11 5 10 10 -1 5 3 11 10
14 14 5 11 -23 -5 -39 -14 -14 -44 -20 -36 -7 3 6 2 15 -3 22 -8 10 -10 87 -3
95 1 1 4 7 5 12 1 6 3 12 4 14 1 4 10 3 46 -4z m19 -61 c0 -14 -5 -23 -13 -21
-7 1 -19 -2 -25 -7 -9 -8 -12 -2 -10 22 2 38 -1 34 27 32 16 -1 22 -8 21 -26z"/>
<path d="M2669 3207 c6 -8 7 -18 3 -22 -4 -5 -1 -5 6 -1 10 6 10 11 1 22 -6 8
-14 14 -16 14 -3 0 0 -6 6 -13z"/>
<path d="M2674 3143 c2 -10 -2 -25 -8 -33 -9 -13 -9 -13 6 -2 16 12 18 35 6
48 -4 3 -5 -2 -4 -13z"/>
<path d="M2614 3160 c0 -13 4 -16 10 -10 7 7 7 13 0 20 -6 6 -10 3 -10 -10z"/>
<path d="M2866 3142 c-3 -5 1 -9 9 -9 8 0 12 4 9 9 -3 4 -7 8 -9 8 -2 0 -6 -4
-9 -8z"/>
<path d="M3065 3010 c-3 -5 -1 -10 4 -10 6 0 11 5 11 10 0 6 -2 10 -4 10 -3 0
-8 -4 -11 -10z"/>
<path d="M2288 2833 c6 -2 18 -2 25 0 6 3 1 5 -13 5 -14 0 -19 -2 -12 -5z"/>
<path d="M2900 2759 c0 -5 5 -7 10 -4 6 3 10 8 10 11 0 2 -4 4 -10 4 -5 0 -10
-5 -10 -11z"/>
<path d="M2991 2733 c-1 -17 16 -25 25 -12 4 7 3 9 -4 5 -5 -3 -13 0 -15 6 -4
9 -6 10 -6 1z"/>
<path d="M3776 3828 c3 -5 10 -6 15 -3 13 9 11 12 -6 12 -8 0 -12 -4 -9 -9z"/>
<path d="M3123 3735 c0 -8 4 -12 9 -9 5 3 6 10 3 15 -9 13 -12 11 -12 -6z"/>
<path d="M2216 3672 c-3 -5 1 -9 9 -9 8 0 12 4 9 9 -3 4 -7 8 -9 8 -2 0 -6 -4
-9 -8z"/>
<path d="M1745 3641 c-3 -5 -1 -12 5 -16 5 -3 10 1 10 9 0 18 -6 21 -15 7z"/>
<path d="M1820 3640 c0 -5 5 -10 11 -10 5 0 7 5 4 10 -3 6 -8 10 -11 10 -2 0
-4 -4 -4 -10z"/>
<path d="M1950 3620 c-6 -11 -8 -20 -6 -20 3 0 10 9 16 20 6 11 8 20 6 20 -3
0 -10 -9 -16 -20z"/>
<path d="M2665 3630 c3 -5 8 -10 11 -10 2 0 4 5 4 10 0 6 -5 10 -11 10 -5 0
-7 -4 -4 -10z"/>
<path d="M1661 3614 c0 -11 3 -14 6 -6 3 7 2 16 -1 19 -3 4 -6 -2 -5 -13z"/>
<path d="M1850 3620 c0 -5 5 -10 10 -10 6 0 10 5 10 10 0 6 -4 10 -10 10 -5 0
-10 -4 -10 -10z"/>
<path d="M2518 3623 c7 -3 16 -2 19 1 4 3 -2 6 -13 5 -11 0 -14 -3 -6 -6z"/>
<path d="M2930 3620 c0 -5 5 -10 10 -10 6 0 10 5 10 10 0 6 -4 10 -10 10 -5 0
-10 -4 -10 -10z"/>
<path d="M2410 3610 c0 -5 5 -10 10 -10 6 0 10 5 10 10 0 6 -4 10 -10 10 -5 0
-10 -4 -10 -10z"/>
<path d="M1795 3590 c-3 -5 -1 -10 4 -10 6 0 11 5 11 10 0 6 -2 10 -4 10 -3 0
-8 -4 -11 -10z"/>
<path d="M2225 3590 c3 -5 8 -10 11 -10 2 0 4 5 4 10 0 6 -5 10 -11 10 -5 0
-7 -4 -4 -10z"/>
<path d="M2690 3596 c0 -2 7 -7 16 -10 8 -3 12 -2 9 4 -6 10 -25 14 -25 6z"/>
<path d="M2761 3584 c0 -11 3 -14 6 -6 3 7 2 16 -1 19 -3 4 -6 -2 -5 -13z"/>
<path d="M1605 3571 c-3 -5 -2 -12 3 -15 5 -3 9 1 9 9 0 17 -3 19 -12 6z"/>
<path d="M1630 3570 c0 -5 5 -10 11 -10 5 0 7 5 4 10 -3 6 -8 10 -11 10 -2 0
-4 -4 -4 -10z"/>
<path d="M1985 3570 c3 -5 8 -10 11 -10 2 0 4 5 4 10 0 6 -5 10 -11 10 -5 0
-7 -4 -4 -10z"/>
<path d="M2100 3569 c0 -5 5 -7 10 -4 6 3 10 8 10 11 0 2 -4 4 -10 4 -5 0 -10
-5 -10 -11z"/>
<path d="M2250 3559 c0 -5 5 -7 10 -4 6 3 10 8 10 11 0 2 -4 4 -10 4 -5 0 -10
-5 -10 -11z"/>
<path d="M3905 3550 c-3 -5 -1 -10 4 -10 6 0 11 5 11 10 0 6 -2 10 -4 10 -3 0
-8 -4 -11 -10z"/>
<path d="M1960 3541 c0 -5 7 -12 16 -15 14 -5 15 -4 4 9 -14 17 -20 19 -20 6z"/>
<path d="M1820 3530 c0 -5 5 -10 11 -10 5 0 7 5 4 10 -3 6 -8 10 -11 10 -2 0
-4 -4 -4 -10z"/>
<path d="M1690 3500 c0 -5 5 -10 10 -10 6 0 10 5 10 10 0 6 -4 10 -10 10 -5 0
-10 -4 -10 -10z"/>
<path d="M1882 3499 c2 -7 10 -15 17 -17 8 -3 12 1 9 9 -2 7 -10 15 -17 17 -8
3 -12 -1 -9 -9z"/>
<path d="M1955 3500 c-3 -5 -1 -10 4 -10 6 0 11 5 11 10 0 6 -2 10 -4 10 -3 0
-8 -4 -11 -10z"/>
<path d="M1686 3463 c-6 -14 -5 -15 5 -6 7 7 10 15 7 18 -3 3 -9 -2 -12 -12z"/>
<path d="M1857 3473 c-4 -3 -7 -11 -7 -17 0 -6 5 -5 12 2 6 6 9 14 7 17 -3 3
-9 2 -12 -2z"/>
<path d="M1781 3424 c0 -11 3 -14 6 -6 3 7 2 16 -1 19 -3 4 -6 -2 -5 -13z"/>
<path d="M3905 3421 c-3 -5 -1 -12 5 -16 5 -3 10 1 10 9 0 18 -6 21 -15 7z"/>
<path d="M1635 3401 c-3 -5 -2 -12 3 -15 5 -3 9 1 9 9 0 17 -3 19 -12 6z"/>
<path d="M2815 3400 c-4 -6 -11 -7 -17 -4 -7 4 -8 2 -4 -5 6 -8 12 -9 20 -2 7
6 17 7 21 3 5 -4 5 -1 1 6 -9 15 -13 15 -21 2z"/>
<path d="M2863 3396 c-4 -6 -3 -8 2 -4 4 4 14 3 20 -2 9 -7 16 -6 23 3 9 10 6
13 -14 13 -14 0 -28 -5 -31 -10z"/>
<path d="M1690 3369 c0 -5 5 -7 10 -4 6 3 10 8 10 11 0 2 -4 4 -10 4 -5 0 -10
-5 -10 -11z"/>
<path d="M2440 3330 c-8 -5 -10 -10 -5 -10 6 0 17 5 25 10 8 5 11 10 5 10 -5
0 -17 -5 -25 -10z"/>
<path d="M2564 3328 c1 -7 11 -15 21 -16 11 -3 15 0 10 7 -3 6 -10 9 -15 6 -4
-3 -11 0 -13 5 -3 6 -4 5 -3 -2z"/>
<path d="M1615 3320 c3 -5 8 -10 11 -10 2 0 4 5 4 10 0 6 -5 10 -11 10 -5 0
-7 -4 -4 -10z"/>
<path d="M1780 3320 c0 -5 5 -10 10 -10 6 0 10 5 10 10 0 6 -4 10 -10 10 -5 0
-10 -4 -10 -10z"/>
<path d="M2316 3312 c-4 -13 -5 -26 -2 -29 10 -11 18 4 14 29 l-4 23 -8 -23z"/>
<path d="M4046 3323 c-3 -4 4 -13 16 -22 23 -15 27 -17 59 -24 10 -1 23 -8 30
-14 14 -11 19 -13 40 -13 5 0 7 -5 4 -10 -4 -6 -3 -10 2 -9 4 1 10 1 13 -1 3
-1 16 -3 30 -6 18 -3 21 -2 10 5 -8 5 -18 7 -22 5 -4 -3 -8 0 -8 6 0 9 -43 31
-60 31 -3 0 -13 8 -22 16 -10 9 -18 13 -18 10 0 -4 -15 2 -34 12 -19 11 -37
17 -40 14z"/>
<path d="M2243 3287 c-30 -33 -36 -47 -21 -47 14 0 54 58 46 66 -3 2 -14 -6
-25 -19z"/>
<path d="M2462 3298 c-7 -7 -12 -16 -12 -21 0 -5 7 -1 16 8 9 9 14 18 12 20
-2 3 -10 -1 -16 -7z"/>
<path d="M1765 3290 c-3 -5 -1 -10 4 -10 6 0 11 5 11 10 0 6 -2 10 -4 10 -3 0
-8 -4 -11 -10z"/>
<path d="M1711 3264 c0 -11 3 -14 6 -6 3 7 2 16 -1 19 -3 4 -6 -2 -5 -13z"/>
<path d="M3910 3260 c-8 -26 -7 -41 2 -32 6 6 8 16 5 24 -3 7 -6 11 -7 8z"/>
<path d="M1740 3231 c0 -27 12 -33 32 -14 18 16 18 16 12 -3 -4 -10 -12 -22
-18 -26 -6 -4 1 -8 16 -8 23 0 26 4 25 33 -1 31 -4 34 -34 35 -26 1 -33 -3
-33 -17z"/>
<path d="M1828 3244 c-3 -2 -3 -17 0 -34 4 -27 8 -30 39 -30 21 0 33 5 32 13
-3 28 2 37 23 37 12 0 18 3 15 6 -8 8 -103 15 -109 8z m49 -20 c-3 -3 -12 -4
-19 -1 -8 3 -5 6 6 6 11 1 17 -2 13 -5z"/>
<path d="M2259 3242 c11 -8 11 -10 0 -15 -10 -4 -8 -6 4 -6 21 -1 18 21 -4 27
-12 3 -12 2 0 -6z"/>
<path d="M4293 3200 c26 -21 53 -27 42 -10 -4 6 -10 8 -15 5 -4 -3 -13 2 -20
10 -7 8 -17 15 -23 15 -5 0 2 -9 16 -20z"/>
<path d="M1650 3171 c0 -5 7 -11 14 -14 10 -4 13 -1 9 9 -6 15 -23 19 -23 5z"/>
<path d="M4353 3165 c0 -8 4 -12 9 -9 5 3 6 10 3 15 -9 13 -12 11 -12 -6z"/>
<path d="M2051 3160 c-6 -4 -6 -41 1 -110 0 -8 6 -18 12 -22 8 -6 7 -11 -3
-17 -9 -6 -10 -11 -2 -15 6 -4 11 -3 11 3 0 5 8 8 19 6 12 -2 18 2 17 12 0 9
5 18 13 21 9 3 11 0 6 -8 -5 -9 -4 -11 3 -6 7 4 12 3 12 -3 0 -5 -5 -13 -10
-16 -15 -10 7 -34 27 -31 18 3 27 33 12 42 -13 8 -11 24 3 22 9 -2 12 17 13
62 l0 64 -63 1 c-35 0 -66 -2 -71 -5z m125 -62 c0 -31 -4 -54 -8 -52 -3 2 -10
0 -13 -6 -5 -8 -12 -7 -22 2 -13 10 -18 9 -33 -10 -16 -20 -19 -20 -25 -4 -5
9 -9 42 -9 72 l-2 55 56 0 56 0 0 -57z m-10 -102 c2 -12 -4 -13 -35 -7 -2 1 2
8 9 16 14 16 23 13 26 -9z"/>
<path d="M2079 3145 c-4 -1 -5 -101 -1 -108 2 -5 12 -1 23 9 14 13 22 14 32 5
20 -16 33 5 32 54 l0 39 -43 1 c-23 0 -43 1 -43 0z m75 -50 c-2 -51 -1 -50
-19 -35 -13 10 -19 10 -33 -3 -16 -15 -17 -13 -17 31 l0 47 35 0 c35 0 36 0
34 -40z"/>
<path d="M2125 3120 c-4 -6 -1 -18 7 -27 7 -9 12 -18 10 -20 -2 -3 -1 -7 1
-10 3 -3 4 2 3 11 -1 8 -5 19 -9 22 -12 12 -8 26 5 18 7 -4 8 -3 4 4 -9 15
-13 15 -21 2z"/>
<path d="M2099 3098 c0 -2 -2 -11 -4 -21 -3 -15 -1 -16 11 -6 7 6 11 15 8 20
-5 9 -13 12 -15 7z"/>
<path d="M1960 3151 c0 -6 5 -13 10 -16 6 -3 10 1 10 9 0 9 -4 16 -10 16 -5 0
-10 -4 -10 -9z"/>
<path d="M1605 3140 c3 -5 8 -10 11 -10 2 0 4 5 4 10 0 6 -5 10 -11 10 -5 0
-7 -4 -4 -10z"/>
<path d="M4315 3140 c-3 -6 1 -7 9 -4 18 7 21 14 7 14 -6 0 -13 -4 -16 -10z"/>
<path d="M1870 3109 c0 -5 5 -7 10 -4 6 3 10 8 10 11 0 2 -4 4 -10 4 -5 0 -10
-5 -10 -11z"/>
<path d="M1948 3093 c6 -2 18 -2 25 0 6 3 1 5 -13 5 -14 0 -19 -2 -12 -5z"/>
<path d="M4190 3055 c-7 -8 -16 -13 -20 -10 -7 4 -50 -31 -50 -42 0 -4 10 3
23 15 13 12 26 20 29 17 2 -3 13 4 23 15 10 11 16 20 13 20 -3 0 -11 -7 -18
-15z"/>
<path d="M1620 3050 c0 -5 5 -10 11 -10 5 0 7 5 4 10 -3 6 -8 10 -11 10 -2 0
-4 -4 -4 -10z"/>
<path d="M1988 3053 c7 -3 16 -2 19 1 4 3 -2 6 -13 5 -11 0 -14 -3 -6 -6z"/>
<path d="M1741 3024 c0 -11 3 -14 6 -6 3 7 2 16 -1 19 -3 4 -6 -2 -5 -13z"/>
<path d="M1653 3013 c0 -8 4 -9 11 -4 6 5 22 11 36 14 17 3 14 5 -11 4 -22 -1
-36 -6 -36 -14z"/>
<path d="M1622 3006 c7 -8 15 -12 17 -11 5 6 -10 25 -20 25 -5 0 -4 -6 3 -14z"/>
<path d="M1785 3010 c3 -5 8 -10 11 -10 2 0 4 5 4 10 0 6 -5 10 -11 10 -5 0
-7 -4 -4 -10z"/>
<path d="M1888 3013 c7 -3 16 -2 19 1 4 3 -2 6 -13 5 -11 0 -14 -3 -6 -6z"/>
<path d="M4074 2988 l-19 -21 28 18 c28 18 33 25 19 25 -5 0 -17 -10 -28 -22z"/>
<path d="M1950 2989 c0 -5 5 -7 10 -4 6 3 10 8 10 11 0 2 -4 4 -10 4 -5 0 -10
-5 -10 -11z"/>
<path d="M3380 2986 c0 -2 9 -6 20 -9 11 -3 18 -1 14 4 -5 9 -34 13 -34 5z"/>
<path d="M4139 2973 c-13 -16 -12 -17 4 -4 9 7 17 15 17 17 0 8 -8 3 -21 -13z"/>
<path d="M1660 2971 c0 -17 25 -30 40 -20 12 8 11 9 -5 7 -12 -2 -19 2 -17 10
1 6 -2 12 -8 12 -5 0 -10 -4 -10 -9z"/>
<path d="M1770 2966 c0 -9 5 -16 10 -16 6 0 10 4 10 9 0 6 -4 13 -10 16 -5 3
-10 -1 -10 -9z"/>
<path d="M2084 2968 c-4 -6 -3 -8 4 -4 5 3 12 1 14 -6 3 -8 6 -9 11 -1 4 6 0
13 -8 17 -8 3 -17 0 -21 -6z"/>
<path d="M3623 2967 c0 -8 6 -14 14 -14 15 0 12 19 -3 24 -6 2 -11 -3 -11 -10z"/>
<path d="M1736 2961 c-3 -5 1 -11 9 -14 9 -4 12 -1 8 9 -6 16 -10 17 -17 5z"/>
<path d="M1835 2950 c-8 -13 5 -13 25 0 13 8 13 10 -2 10 -9 0 -20 -4 -23 -10z"/>
<path d="M2044 2945 c3 -23 12 -26 13 -5 1 11 -2 20 -7 20 -4 0 -7 -7 -6 -15z"/>
<path d="M3880 2953 c0 -17 43 -159 52 -170 7 -8 17 -9 35 -2 34 13 67 3 50
-15 -8 -9 -19 -11 -34 -5 -17 6 -21 5 -17 -5 3 -7 -2 -16 -11 -20 -9 -3 -14
-2 -11 2 12 20 -68 72 -111 72 -11 0 -45 8 -76 19 -53 17 -57 17 -57 1 0 -16
80 -46 178 -65 21 -4 36 -15 42 -28 7 -19 -9 -38 -123 -147 -126 -120 -182
-157 -170 -109 9 34 -34 60 -97 57 -30 -1 -61 -7 -68 -12 -7 -5 -35 -17 -61
-26 -44 -15 -51 -14 -109 3 -54 15 -67 24 -97 65 -19 26 -35 53 -35 60 0 6 -2
12 -5 12 -12 0 -115 -67 -148 -96 -21 -19 -62 -45 -92 -59 -30 -13 -87 -44
-126 -70 -53 -34 -79 -45 -102 -43 l-32 3 40 44 c22 25 33 41 25 36 -13 -8
-13 -7 -1 9 11 13 16 14 23 4 6 -9 8 -7 4 7 -4 15 7 39 37 80 62 87 62 85 32
85 -21 0 -34 -13 -71 -70 -25 -38 -48 -70 -52 -70 -4 0 -27 -34 -52 -75 -44
-73 -46 -75 -85 -75 -23 0 -47 -6 -54 -12 -10 -9 -12 -9 -7 -1 4 8 -2 10 -20
7 -23 -4 -25 -3 -15 9 6 8 25 13 41 12 16 -1 27 1 24 6 -7 13 10 11 22 -1 8
-8 10 12 9 63 -3 80 -9 101 -30 93 -16 -6 -38 17 -27 29 4 5 2 5 -4 2 -7 -4
-9 3 -6 21 l5 27 -26 -23 c-16 -15 -27 -20 -32 -13 -3 6 -4 15 -1 19 3 5 0 9
-7 9 -7 0 -12 -13 -12 -28 -1 -16 3 -25 10 -22 5 3 4 0 -2 -7 -15 -16 -55 -21
-46 -7 3 6 2 7 -4 4 -5 -3 -10 0 -10 8 0 8 5 11 11 8 6 -4 4 1 -4 11 -13 17
-12 21 15 43 17 13 22 21 12 17 -12 -4 -17 -2 -15 7 2 10 -13 13 -58 14 -59 1
-61 0 -59 -25 0 -14 4 -24 8 -22 11 3 16 4 30 6 6 0 12 7 12 15 0 8 5 16 12
18 6 2 10 -4 8 -14 -1 -10 2 -24 8 -30 6 -8 6 -18 0 -25 -11 -15 -11 -28 0
-45 5 -7 5 -19 0 -25 -4 -7 -8 -28 -8 -47 0 -19 -5 -36 -12 -38 -9 -3 -11 18
-6 87 l6 91 -24 -5 c-22 -5 -89 -14 -149 -21 -14 -2 -25 -4 -25 -5 0 -1 -18
-3 -40 -5 -22 -3 -67 -9 -100 -15 -33 -6 -69 -9 -81 -7 -17 3 -19 -1 -16 -25
3 -16 9 -27 16 -25 6 2 20 0 31 -6 11 -6 31 -12 45 -13 14 -2 41 -7 60 -11 19
-5 44 -9 55 -8 11 0 28 -9 37 -20 10 -11 17 -15 18 -9 0 13 50 6 50 -7 0 -15
-21 -21 -35 -9 -8 7 -15 9 -15 5 0 -4 -6 -3 -13 4 -10 7 -17 7 -24 0 -14 -14
-36 -2 -27 14 4 7 4 9 -1 5 -4 -4 -13 -4 -20 2 -8 6 -11 -4 -10 -38 0 -26 4
-52 8 -59 4 -6 3 -14 -3 -18 -6 -4 -7 -13 -1 -23 4 -9 7 -33 5 -52 -2 -22 0
-29 6 -20 5 8 6 18 3 24 -4 5 -1 6 7 1 7 -5 11 -4 7 1 -3 5 8 9 24 9 20 1 26
-2 19 -9 -6 -6 -18 -11 -27 -11 -9 0 -18 -6 -20 -13 -4 -9 2 -10 19 -4 12 5
37 8 53 7 17 -2 35 2 42 7 7 6 14 5 18 -2 3 -6 11 -7 17 -4 6 4 45 9 87 11 42
2 81 4 87 5 12 1 13 23 1 34 -10 11 -8 26 2 19 5 -3 13 0 17 6 4 7 3 9 -4 5
-6 -3 -14 -1 -18 5 -5 8 -3 9 6 4 9 -6 11 -4 5 5 -6 9 -4 11 5 5 8 -5 11 -4 7
1 -3 6 7 10 23 9 l29 0 -24 -20 c-34 -28 -43 -106 -17 -154 15 -28 28 -36 71
-48 l53 -13 47 33 c45 33 46 34 46 90 0 53 2 59 30 76 29 18 31 18 60 -3 17
-11 36 -26 44 -34 8 -8 23 -11 35 -7 12 3 36 10 53 15 18 4 59 21 90 38 38 19
73 29 101 29 24 0 48 5 53 10 7 7 24 7 47 2 41 -10 160 -1 168 12 3 5 -115 9
-262 9 l-268 0 60 36 c158 96 257 154 264 154 4 0 15 -11 24 -25 11 -16 22
-22 34 -19 12 4 13 3 4 -3 -11 -8 -11 -17 0 -52 l13 -42 148 3 147 3 -6 30
c-3 17 -8 38 -10 48 -3 9 -1 17 5 17 6 0 11 -13 11 -30 0 -25 4 -30 25 -30
l25 0 0 -126 c0 -158 4 -163 123 -164 l78 0 -3 27 c-2 22 2 28 25 34 15 4 27
3 27 -2 0 -5 -10 -10 -22 -10 -17 -1 -19 -2 -5 -6 9 -2 17 -11 17 -20 0 -13
-3 -13 -15 -3 -12 10 -15 10 -15 -4 0 -13 11 -16 55 -16 l55 0 0 -46 0 -45 73
57 c39 31 71 60 70 65 -2 5 4 6 12 3 18 -7 21 26 3 44 -17 17 -30 15 -27 -5 3
-35 -1 -50 -15 -50 -11 0 -12 6 -6 23 6 15 5 24 -3 27 -9 3 -9 7 0 18 10 10 3
19 -35 44 -26 17 -55 35 -66 38 -17 7 -18 3 -12 -37 5 -31 3 -45 -6 -48 -7 -2
-61 -5 -120 -7 l-108 -3 0 57 c0 50 2 56 18 51 12 -4 27 3 42 19 20 21 22 29
13 43 -9 15 -2 28 43 77 30 32 57 67 60 78 4 12 9 15 13 9 4 -7 32 11 73 48
36 33 68 57 71 53 13 -12 67 -10 79 4 7 8 11 33 9 55 -2 31 0 39 11 33 7 -4 1
5 -14 20 -20 21 -36 28 -63 28 -34 0 -36 2 -50 50 -8 28 -15 59 -15 69 0 11
-7 18 -20 18 -11 0 -20 -3 -20 -7z m114 -215 c-5 -8 -1 -9 12 -5 14 5 12 2 -6
-12 -24 -19 -40 -19 -40 0 0 6 5 7 10 4 6 -3 10 1 10 9 0 9 5 16 11 16 5 0 7
-5 3 -12z m48 -40 c-14 -14 -44 -20 -36 -7 3 5 10 7 15 4 5 -4 9 -1 9 4 0 6 5
11 12 11 9 0 9 -3 0 -12z m-1735 -75 c0 -7 -3 -11 -5 -8 -3 3 -11 0 -18 -6 -9
-8 -12 -6 -9 8 4 22 2 20 18 20 8 0 14 -6 14 -14z m69 3 c-3 -19 -17 -36 -26
-31 -6 4 -7 34 -1 41 6 6 28 -2 27 -10z m-21 -76 c-7 -34 38 -49 67 -23 15 13
16 19 5 32 -10 14 -10 14 5 3 9 -7 15 -22 13 -34 -5 -25 -15 -37 -15 -17 0 8
-6 4 -16 -9 -14 -20 -42 -33 -30 -14 3 5 -1 9 -8 9 -8 0 -13 -7 -11 -16 1 -10
10 -15 21 -13 16 3 16 1 -3 -13 -21 -15 -34 -43 -15 -31 4 2 14 0 22 -6 12 -8
12 -9 -3 -4 -11 4 -16 2 -12 -5 4 -6 13 -8 21 -5 22 8 17 -2 -7 -15 -17 -9
-20 -8 -13 3 6 10 5 11 -7 1 -10 -8 -19 -9 -25 -3 -6 6 -10 0 -9 -19 0 -16 4
-27 9 -24 5 4 6 1 2 -5 -3 -6 -2 -13 4 -17 6 -4 7 -11 4 -17 -4 -7 -2 -8 5 -4
6 4 8 12 5 18 -4 6 -3 8 2 5 6 -3 16 -2 24 4 11 6 11 9 3 10 -7 1 -18 2 -25 3
-6 0 -13 6 -15 13 -4 12 14 12 35 0 7 -5 12 -4 12 2 0 6 -5 11 -12 11 -6 0 -8
3 -4 7 4 5 14 -1 22 -11 8 -11 14 -14 14 -7 0 7 4 10 9 6 5 -3 13 0 17 6 5 8
3 9 -7 4 -12 -8 -12 -6 0 8 8 10 23 15 37 13 14 -3 22 -1 19 4 -3 5 7 7 22 4
21 -3 24 -2 13 5 -8 6 -15 18 -15 28 0 11 -6 17 -15 15 -11 -3 -10 2 4 17 18
19 15 26 -8 22 -5 -1 -6 5 -3 13 3 8 -2 20 -11 28 -15 12 -16 11 -3 -4 7 -10
11 -18 8 -18 -3 0 -12 -3 -20 -6 -12 -4 -15 1 -13 27 1 18 9 35 17 37 8 3 11
1 6 -3 -8 -10 32 -57 43 -50 4 3 7 -11 5 -31 -1 -27 1 -34 13 -29 12 4 13 3 3
-9 -7 -9 -9 -21 -5 -28 12 -19 14 -39 3 -32 -5 3 -15 2 -21 -3 -7 -4 -24 -8
-36 -9 -13 0 -28 -7 -33 -15 -4 -8 -12 -14 -16 -14 -16 0 -58 -35 -43 -36 11
0 12 -2 2 -6 -10 -4 -10 -9 3 -23 12 -14 13 -20 4 -26 -8 -4 -10 -3 -5 4 10
16 -9 15 -22 -1 -11 -13 -105 -17 -118 -4 -11 10 -26 9 -19 -2 3 -5 1 -12 -4
-15 -5 -4 -13 -2 -16 4 -5 8 -11 8 -20 0 -13 -11 -13 -8 -6 29 1 2 8 -2 16 -9
8 -7 16 -10 16 -6 1 3 3 11 4 16 1 6 3 15 4 21 0 5 7 7 14 3 9 -6 9 -4 1 7 -6
8 -10 22 -9 31 2 10 -2 16 -7 15 -6 -1 -13 4 -16 12 -2 8 0 11 6 7 6 -3 13 -2
16 3 4 5 2 12 -3 15 -5 4 -12 2 -16 -4 -4 -6 -11 -8 -16 -5 -5 3 -6 0 -3 -8 3
-8 0 -18 -7 -23 -8 -4 -10 -3 -5 4 5 8 1 10 -9 6 -11 -5 -13 -10 -6 -17 7 -7
16 -6 28 4 17 13 17 13 3 -5 -8 -11 -10 -17 -4 -13 6 3 11 0 11 -8 0 -8 -5
-11 -10 -8 -6 4 -7 1 -2 -7 5 -9 4 -11 -4 -6 -6 4 -9 12 -6 17 9 13 -9 11 -24
-3 -11 -11 -12 -10 -6 1 6 10 4 12 -5 6 -8 -5 -11 -4 -6 3 3 6 2 13 -3 17 -6
3 -8 12 -5 19 3 8 1 17 -5 21 -6 3 -9 0 -8 -7 2 -7 2 -10 0 -5 -3 4 -9 7 -15
7 -7 0 -7 -5 1 -13 10 -13 6 -27 -10 -27 -11 0 -3 48 11 65 7 8 17 12 24 8 6
-4 16 -8 21 -8 6 0 11 -6 11 -12 1 -7 2 -16 3 -19 0 -4 10 5 22 20 15 19 24
24 33 16 7 -5 16 -7 19 -4 3 3 12 2 19 -2 17 -11 65 -18 55 -8 -4 4 2 13 12
21 14 9 19 23 17 46 -2 17 1 38 7 45 6 7 6 17 0 25 -10 13 -9 47 1 47 3 0 3
-9 1 -20z m-109 -5 c-7 -19 -2 -19 17 -1 9 9 19 11 28 5 12 -7 12 -9 -1 -9
-12 0 -12 -2 -2 -9 19 -12 1 -76 -21 -75 -9 1 -14 -2 -11 -8 3 -5 14 -6 24 -3
19 6 23 -16 5 -32 -4 -4 -5 -2 -1 5 8 14 -10 17 -19 2 -3 -5 -13 -6 -21 -3
-13 5 -13 8 -2 15 9 7 5 8 -12 4 -23 -5 -23 -4 -7 9 10 7 14 16 9 19 -4 2 -15
-4 -22 -14 -10 -14 -17 -16 -27 -8 -7 6 -13 7 -13 4 0 -4 -9 -2 -21 4 -11 7
-35 13 -52 15 -18 2 -35 4 -39 4 -5 1 -8 9 -8 19 0 14 -2 14 -9 3 -8 -12 -14
-12 -33 -4 -16 8 -18 12 -7 12 9 1 20 8 23 17 6 15 8 15 28 -2 20 -18 21 -18
15 -1 -4 10 -3 16 2 12 5 -3 12 -1 16 5 3 5 12 10 18 10 7 0 6 -4 -3 -10 -8
-5 -10 -10 -4 -10 6 0 14 3 18 7 10 10 37 13 31 3 -3 -5 0 -12 6 -16 7 -4 9
-3 5 4 -9 14 8 23 44 24 17 1 33 5 36 10 9 14 16 9 10 -7z m1359 -47 c5 4 5 1
1 -6 -4 -7 -12 -9 -18 -6 -6 4 -8 2 -5 -3 12 -19 -18 -21 -41 -3 -26 22 -29
32 -5 23 11 -5 14 -3 9 6 -6 9 1 8 22 -3 16 -8 33 -12 37 -8z m-360 -6 c9 4
31 -29 24 -36 -11 -11 -50 7 -45 20 3 8 1 14 -5 14 -6 0 -7 5 -3 11 5 8 9 8
14 -1 4 -6 11 -10 15 -8z m-755 -2 c3 -1 9 -2 15 0 5 1 1 -8 -9 -19 -17 -19
-15 -25 6 -22 4 0 6 -8 5 -19 -1 -10 -4 -17 -8 -14 -4 2 -10 0 -14 -6 -4 -6
-11 -8 -16 -4 -6 3 -21 -4 -34 -16 -13 -13 -25 -17 -29 -11 -4 5 -2 12 4 16 6
4 5 13 -2 25 -7 10 -16 16 -20 14 -4 -3 -8 -1 -8 4 0 6 7 13 16 16 9 4 14 9
11 13 -19 19 48 37 83 23z m974 -16 c3 -15 -3 -19 -25 -21 -16 -1 -29 2 -29 7
0 5 -7 6 -17 3 -11 -4 -14 -3 -9 6 5 7 13 10 20 8 6 -3 20 1 31 9 21 16 24 14
29 -12z m-115 -20 c2 -2 -12 -4 -32 -4 -20 0 -37 4 -37 10 0 8 58 3 69 -6z
m275 -6 c9 -13 14 -16 9 -8 -6 13 -3 12 17 -1 31 -20 33 -54 5 -55 -11 0 -28
6 -37 14 -10 8 -18 12 -18 8 0 -4 -6 -1 -13 6 -17 15 -18 40 -3 50 17 12 22
10 40 -14z m-1539 -83 c-3 -40 9 -53 30 -35 13 11 21 8 13 -3 -5 -7 24 -37 31
-33 4 3 13 0 21 -5 13 -8 12 -11 -3 -23 -10 -8 -19 -18 -20 -22 -1 -5 -8 -9
-15 -10 -9 -2 -10 1 -3 10 6 7 7 17 3 21 -4 5 -2 5 5 1 6 -3 14 -2 17 3 4 5
-2 8 -11 6 -10 -2 -18 -4 -18 -5 0 -1 -15 -3 -33 -5 -18 -1 -30 0 -28 3 3 2 1
13 -4 23 -7 12 -7 20 0 24 6 4 7 12 3 18 -4 6 -7 28 -8 49 -1 27 2 35 10 28 7
-6 11 -26 10 -45z m1533 17 c2 -7 -1 -12 -7 -12 -7 0 -9 -10 -5 -25 5 -19 2
-25 -10 -25 -9 0 -16 -5 -16 -11 0 -5 4 -8 9 -5 5 3 11 -1 15 -9 3 -8 0 -17
-6 -21 -7 -5 -8 -2 -3 6 5 9 4 11 -3 6 -17 -10 -15 -26 2 -26 8 0 18 -5 22
-12 4 -7 3 -8 -4 -4 -12 7 -16 -5 -12 -33 1 -12 -1 -12 -13 -3 -10 9 -14 37
-15 100 -1 84 0 88 21 87 11 -1 23 -7 25 -13z m-810 -27 c8 -17 8 -26 1 -31
-8 -4 -7 -10 0 -17 8 -8 14 -7 24 2 10 10 8 11 -6 5 -17 -6 -17 -4 -7 12 6 10
22 19 35 19 13 0 21 -2 19 -4 -2 -2 1 -10 7 -17 6 -7 8 -18 4 -24 -5 -7 -12
-5 -21 7 -13 17 -14 17 -7 -1 4 -13 3 -17 -5 -12 -7 4 -12 2 -12 -4 0 -7 -6
-8 -19 -1 -10 6 -21 8 -24 4 -4 -3 -9 2 -13 11 -3 9 -10 14 -14 11 -5 -3 -15
1 -23 9 -8 8 -17 12 -21 9 -3 -4 -6 -2 -6 4 0 8 54 41 71 42 3 1 11 -10 17
-24z m-138 -13 c0 -4 -9 -13 -20 -20 -22 -13 -23 -12 -14 12 6 16 34 23 34 8z
m264 -5 c11 -10 9 -15 -10 -24 -26 -12 -38 3 -20 24 14 16 15 16 30 0z m-710
-30 c-3 -12 -6 -28 -6 -35 -1 -8 -5 -9 -11 -3 -7 7 -7 15 0 23 6 7 9 21 8 31
-2 9 1 15 5 12 5 -3 6 -15 4 -28z m312 24 c-3 -5 1 -12 10 -15 9 -4 13 -2 8 5
-4 8 -1 8 14 0 28 -15 32 -14 33 7 0 12 3 10 10 -7 7 -18 6 -27 -3 -33 -9 -6
-7 -8 7 -4 17 5 20 1 20 -23 0 -16 -3 -27 -7 -24 -5 2 -8 -1 -8 -8 0 -8 -4 -8
-13 -1 -15 13 -54 9 -48 -4 2 -5 12 -19 21 -32 18 -22 19 -22 25 -2 7 22 20
26 30 10 3 -5 1 -10 -5 -10 -6 0 -9 -4 -6 -8 3 -5 -4 -16 -15 -25 -13 -11 -19
-13 -19 -4 0 8 -3 8 -9 -2 -7 -11 -10 -10 -14 5 -4 15 -5 13 -6 -6 -1 -19 -3
-22 -10 -10 -6 8 -7 18 -4 22 7 12 -17 39 -28 32 -5 -3 -8 0 -7 7 2 7 -5 15
-14 17 -10 2 -18 -2 -18 -8 0 -6 5 -8 13 -4 8 5 8 3 -2 -9 -7 -9 -17 -14 -22
-11 -5 3 -9 -3 -10 -13 0 -16 -1 -16 -8 2 -5 12 -4 23 3 27 13 9 14 34 3 67
-6 20 -5 22 6 13 11 -9 13 -7 13 11 -1 14 5 22 16 22 10 0 23 6 30 13 14 14
22 16 14 3z m1386 -78 c-1 -32 12 -46 20 -21 3 9 6 9 11 1 5 -7 -4 -17 -20
-25 -15 -7 -29 -22 -31 -33 -2 -16 0 -16 12 5 14 24 15 24 13 3 -1 -12 -7 -25
-14 -27 -7 -3 -13 -10 -13 -16 0 -6 5 -8 12 -4 7 4 8 3 4 -4 -17 -27 -32 -11
-31 33 1 31 -3 45 -12 45 -7 0 -13 4 -13 10 0 5 7 7 15 4 10 -4 15 0 15 11 0
9 -4 13 -10 10 -6 -4 -7 2 -1 18 5 13 5 30 1 37 -15 25 0 30 22 8 14 -14 21
-33 20 -55z m-1319 -49 c-4 -11 -9 -12 -19 -3 -17 14 -9 30 11 23 7 -3 11 -12
8 -20z m1047 9 c0 -21 -17 -23 -34 -4 -16 18 -16 19 8 17 14 0 26 -6 26 -13z
m45 7 c-3 -5 -10 -10 -16 -10 -5 0 -9 5 -9 10 0 6 7 10 16 10 8 0 12 -4 9 -10z
m148 2 c3 7 6 3 6 -9 1 -16 -4 -21 -18 -20 -12 1 -19 8 -18 19 1 12 5 14 13 7
8 -7 14 -6 17 3z m-113 -16 c0 -8 -4 -18 -10 -21 -5 -3 -10 3 -10 14 0 12 5
21 10 21 6 0 10 -6 10 -14z m-30 -10 c0 -2 -7 -7 -16 -10 -8 -3 -12 -2 -9 4 6
10 25 14 25 6z m-1170 -31 c-9 -10 -9 -15 -1 -15 6 0 11 -4 11 -8 0 -5 -7 -9
-15 -9 -8 0 -15 9 -15 19 0 19 -15 24 -24 9 -4 -5 0 -12 6 -14 8 -3 6 -6 -4
-6 -10 -1 -18 3 -18 7 0 16 24 32 48 32 21 0 22 -2 12 -15z"/>
<path d="M2353 2615 c0 -8 4 -12 9 -9 5 3 6 10 3 15 -9 13 -12 11 -12 -6z"/>
<path d="M2353 2455 c0 -8 4 -12 9 -9 5 3 6 10 3 15 -9 13 -12 11 -12 -6z"/>
<path d="M2346 2411 c-4 -5 -2 -12 3 -15 5 -4 12 -2 15 3 4 5 2 12 -3 15 -5 4
-12 2 -15 -3z"/>
<path d="M2114 2389 c-4 -7 -3 -9 3 -6 13 8 37 -18 29 -31 -3 -6 2 -16 12 -23
15 -12 16 -12 6 1 -5 8 -9 25 -8 38 1 12 -1 20 -4 17 -3 -2 -11 0 -18 6 -8 7
-14 6 -20 -2z"/>
<path d="M2253 2367 c-3 -6 -1 -7 5 -3 7 4 12 3 12 -3 0 -5 -4 -12 -9 -15 -10
-7 -9 -25 2 -43 11 -17 -1 -35 -16 -26 -9 5 -9 3 0 -8 8 -10 29 -15 60 -14 57
1 72 9 70 35 -1 10 -5 16 -10 13 -4 -3 -6 -12 -3 -22 5 -12 3 -12 -9 3 -8 10
-12 22 -10 26 7 12 -23 33 -35 25 -14 -9 -1 -28 15 -22 7 3 12 -3 11 -16 -1
-11 -8 -23 -16 -25 -13 -4 -13 -3 -2 11 12 14 11 16 -7 14 -23 -1 -26 -8 -11
-23 7 -7 6 -11 -3 -11 -9 0 -13 13 -13 38 0 21 4 35 10 32 5 -4 6 -1 1 7 -6 9
-4 11 5 5 9 -5 11 -4 6 4 -4 6 -12 8 -18 5 -7 -5 -9 -2 -6 8 7 16 -19 21 -29
5z m23 -41 c0 -14 -3 -23 -7 -20 -6 3 -6 22 0 42 3 10 7 -2 7 -22z m78 -54 c3
-5 -1 -9 -9 -9 -8 0 -12 4 -9 9 3 4 7 8 9 8 2 0 6 -4 9 -8z"/>
<path d="M2310 2360 c0 -5 5 -10 10 -10 6 0 10 5 10 10 0 6 -4 10 -10 10 -5 0
-10 -4 -10 -10z"/>
<path d="M2131 2502 c-1 -7 -5 -11 -9 -8 -5 3 -9 -1 -9 -9 0 -10 4 -12 12 -5
9 8 14 6 19 -5 3 -8 11 -15 18 -15 10 0 10 2 -1 9 -8 5 -10 14 -6 21 5 8 4 11
-3 6 -5 -3 -13 0 -15 6 -4 10 -6 10 -6 0z"/>
<path d="M2256 2483 c-6 -14 -5 -15 5 -6 7 7 10 15 7 18 -3 3 -9 -2 -12 -12z"/>
<path d="M2419 2483 c-1 -2 -2 -6 -3 -10 -1 -5 -5 -14 -9 -21 -5 -8 -4 -11 4
-10 6 2 14 -3 17 -11 3 -10 0 -11 -9 -5 -11 6 -12 5 -2 -7 10 -12 10 -18 0
-29 -6 -8 -2 -6 10 4 12 10 19 24 17 31 -4 9 1 12 13 10 10 -1 17 -9 15 -16
-3 -12 -1 -12 10 -1 11 11 9 17 -12 33 -17 14 -20 19 -8 17 9 -2 18 1 20 6 3
8 -60 17 -63 9z m26 -11 c-3 -3 0 -11 6 -18 7 -9 6 -12 -7 -10 -21 3 -28 33
-8 33 8 0 12 -3 9 -5z"/>
<path d="M3626 2408 c3 -5 10 -6 15 -3 13 9 11 12 -6 12 -8 0 -12 -4 -9 -9z"/>
<path d="M2115 2321 c-3 -5 -1 -12 4 -16 6 -3 8 -13 5 -23 -5 -14 -4 -14 4 -2
7 9 7 19 2 26 -6 6 -7 14 -3 17 3 4 4 7 0 7 -3 0 -8 -4 -12 -9z"/>
<path d="M2076 2311 c-4 -5 -2 -12 3 -15 5 -4 12 -2 15 3 4 5 2 12 -3 15 -5 4
-12 2 -15 -3z"/>
<path d="M2095 2280 c-3 -5 -1 -10 4 -10 6 0 11 5 11 10 0 6 -2 10 -4 10 -3 0
-8 -4 -11 -10z"/>
<path d="M2520 2226 c0 -8 7 -17 16 -20 13 -5 14 -4 6 7 -7 8 -9 17 -5 20 3 4
1 7 -5 7 -7 0 -12 -6 -12 -14z"/>
<path d="M1635 2940 c-3 -5 1 -10 9 -10 9 0 16 5 16 10 0 6 -4 10 -9 10 -6 0
-13 -4 -16 -10z"/>
<path d="M1785 2934 c-16 -7 -41 -14 -55 -15 l-25 -1 25 -7 c16 -4 36 -1 55 8
40 21 39 20 34 25 -2 2 -17 -3 -34 -10z"/>
<path d="M2226 2941 c-4 -5 -2 -13 4 -16 8 -5 8 -11 1 -19 -8 -9 -7 -13 3 -13
7 0 12 10 12 23 -2 27 -11 39 -20 25z"/>
<path d="M2316 2943 c-4 -5 -17 -8 -29 -8 -15 0 -22 -6 -22 -19 0 -20 31 -31
41 -15 3 5 10 6 16 3 7 -4 8 -2 4 4 -8 13 6 17 18 5 11 -11 35 -12 42 -2 3 5
10 9 15 9 6 0 8 -4 5 -8 -6 -11 34 -9 52 1 7 5 12 3 12 -3 0 -6 5 -8 11 -4 8
4 4 13 -12 25 -15 11 -28 14 -35 9 -6 -6 -16 -5 -24 3 -10 9 -11 9 -6 0 8 -15
-10 -18 -18 -4 -7 10 -31 9 -42 -2 -11 -11 -26 -8 -19 3 7 12 2 13 -9 3z m67
-19 c-3 -9 -23 -13 -36 -6 -4 2 -5 7 -2 12 7 11 41 6 38 -6z m72 -2 c-10 -11
-35 -10 -42 0 -3 6 -1 8 5 4 6 -3 13 -2 17 4 4 6 11 8 16 4 6 -3 8 -9 4 -12z
m-145 -6 c-14 -14 -37 -16 -37 -2 0 7 11 12 24 12 15 0 20 -3 13 -10z"/>
<path d="M3460 2940 c-13 -9 -13 -10 0 -10 13 0 13 -1 0 -10 -10 -6 -11 -10
-2 -10 6 0 12 -5 12 -11 0 -6 -8 -8 -17 -5 -16 5 -15 4 1 -9 14 -10 17 -22 13
-44 -5 -21 -2 -31 10 -35 19 -8 32 2 17 12 -14 9 -13 54 1 64 6 5 6 8 -1 8 -7
0 -10 13 -9 30 3 32 -1 35 -25 20z"/>
<path d="M3635 2930 c3 -5 8 -10 11 -10 2 0 4 5 4 10 0 6 -5 10 -11 10 -5 0
-7 -4 -4 -10z"/>
<path d="M1600 2921 c0 -5 5 -13 10 -16 6 -3 10 -2 10 4 0 5 -4 13 -10 16 -5
3 -10 2 -10 -4z"/>
<path d="M1930 2924 c0 -8 40 -44 48 -44 3 0 -5 11 -18 25 -24 26 -30 29 -30
19z"/>
<path d="M3607 2919 c7 -7 15 -10 18 -7 3 3 -2 9 -12 12 -14 6 -15 5 -6 -5z"/>
<path d="M3565 2910 c-3 -5 -1 -10 4 -10 6 0 11 5 11 10 0 6 -2 10 -4 10 -3 0
-8 -4 -11 -10z"/>
<path d="M1650 2890 c0 -6 7 -10 15 -10 8 0 15 2 15 4 0 2 -7 6 -15 10 -8 3
-15 1 -15 -4z"/>
<path d="M3627 2880 c3 -11 7 -20 9 -20 2 0 4 9 4 20 0 11 -4 20 -9 20 -5 0
-7 -9 -4 -20z"/>
<path d="M1600 2880 c0 -5 7 -7 15 -4 8 4 15 8 15 10 0 2 -7 4 -15 4 -8 0 -15
-4 -15 -10z"/>
<path d="M3586 2882 c-2 -4 -1 -14 3 -21 6 -9 10 -7 14 8 5 20 -7 29 -17 13z"/>
<path d="M4014 2858 c-12 -14 -13 -18 -3 -10 9 6 18 10 21 7 2 -3 5 2 5 10 0
19 0 19 -23 -7z"/>
<path d="M3434 2859 c-4 -7 -3 -9 4 -5 5 3 13 0 15 -6 4 -9 6 -10 6 -1 1 17
-16 25 -25 12z"/>
<path d="M3519 2868 c-7 -26 -7 -48 2 -48 5 0 7 5 4 10 -3 6 -2 10 3 10 6 0
12 -7 16 -15 3 -8 1 -15 -4 -15 -6 0 -10 -5 -10 -11 0 -8 4 -8 14 0 18 15 9
51 -13 52 -12 0 -11 2 4 9 17 7 17 9 3 9 -10 1 -18 0 -19 -1z"/>
<path d="M3560 2853 c0 -5 5 -15 10 -23 7 -12 9 -10 7 8 -1 19 -17 33 -17 15z"/>
<path d="M1902 2845 c4 -4 3 -14 -3 -22 -6 -7 -8 -13 -4 -13 4 0 2 -7 -5 -15
-7 -8 -9 -15 -6 -15 4 0 2 -10 -5 -21 -8 -17 -8 -20 1 -14 7 4 16 1 21 -6 6
-9 7 -4 3 15 -5 20 -3 27 4 22 6 -3 13 -2 16 3 4 5 2 12 -3 16 -5 3 -8 14 -6
25 2 11 -2 23 -8 26 -7 4 -9 4 -5 -1z m12 -53 c3 -5 -1 -9 -9 -9 -8 0 -12 4
-9 9 3 4 7 8 9 8 2 0 6 -4 9 -8z"/>
<path d="M3597 2829 c7 -7 15 -10 18 -7 3 3 -2 9 -12 12 -14 6 -15 5 -6 -5z"/>
<path d="M3630 2815 c0 -8 -3 -14 -7 -14 -19 3 -33 -2 -33 -12 0 -6 5 -7 13
-2 6 4 20 6 29 5 12 -2 15 2 11 18 -6 24 -13 26 -13 5z"/>
<path d="M1613 2798 c3 -9 1 -19 -6 -22 -9 -3 -9 -5 0 -5 18 -1 23 13 11 29
-8 12 -9 12 -5 -2z"/>
<path d="M3287 2776 c-47 -44 -64 -101 -43 -149 9 -19 58 -49 90 -54 31 -5 93
16 100 35 4 9 13 33 20 52 12 31 12 37 -3 54 -13 16 -13 18 -1 12 8 -4 5 2 -8
13 -14 12 -20 25 -16 32 4 7 3 9 -3 6 -6 -4 -13 0 -17 8 -9 25 -88 20 -119 -9z
m113 4 c0 -12 -8 -12 -35 0 -18 8 -17 9 8 9 15 1 27 -3 27 -9z m-31 -22 c-10
-7 -8 -8 9 -5 12 3 19 1 16 -4 -3 -5 2 -12 11 -15 8 -4 14 -11 13 -18 -1 -6 3
-21 10 -33 10 -18 9 -24 -3 -37 -8 -8 -15 -18 -15 -23 0 -5 -8 -10 -17 -10
-10 -1 -35 -4 -55 -6 -21 -3 -36 -1 -33 3 3 5 -4 11 -15 15 -11 3 -21 9 -21
13 -6 38 -6 62 0 66 4 3 7 -7 7 -21 -1 -15 5 -28 14 -30 9 -3 11 -1 5 4 -17
12 -12 69 7 90 9 10 31 19 49 19 23 1 28 -1 18 -8z"/>
<path d="M3310 2745 c-11 -13 -10 -14 4 -9 9 3 16 10 16 15 0 13 -6 11 -20 -6z"/>
<path d="M3348 2733 c7 -3 16 -2 19 1 4 3 -2 6 -13 5 -11 0 -14 -3 -6 -6z"/>
<path d="M3383 2727 c0 -7 -2 -19 -4 -27 -3 -9 4 -15 16 -16 15 -1 16 0 3 3
-14 3 -16 8 -8 23 6 10 6 21 2 24 -5 3 -9 0 -9 -7z"/>
<path d="M3315 2699 c-18 -7 -18 -8 4 -8 14 -1 33 -8 43 -18 10 -9 20 -14 22
-12 2 2 -8 13 -23 25 -18 15 -32 19 -46 13z"/>
<path d="M3300 2676 c0 -2 7 -7 16 -10 8 -3 12 -2 9 4 -6 10 -25 14 -25 6z"/>
<path d="M2479 2773 c-14 -16 -33 -17 -23 0 5 8 2 8 -9 -2 -18 -15 -23 -26 -7
-16 16 10 12 -7 -7 -27 -20 -22 -27 -51 -10 -42 9 5 9 4 0 -6 -6 -7 -9 -19 -6
-28 5 -11 3 -13 -8 -7 -8 5 -5 -2 6 -15 11 -13 15 -21 10 -18 -6 4 -22 -2 -35
-13 -24 -18 -24 -20 -7 -33 13 -10 14 -15 6 -18 -9 -3 -9 -6 2 -10 12 -5 15 2
15 31 -1 38 15 48 43 27 10 -8 15 -8 18 2 3 6 11 12 18 12 7 0 15 7 19 15 7
19 -1 19 -21 0 -25 -26 -48 5 -33 45 1 3 3 10 4 15 5 30 19 55 32 55 8 0 13
-4 10 -8 -8 -14 51 -7 68 7 15 12 20 8 17 -12 -1 -5 3 -6 9 -2 5 3 13 -2 17
-12 4 -10 11 -21 17 -25 12 -8 -7 -50 -37 -85 -15 -17 -24 -20 -38 -13 -12 7
-20 7 -24 0 -4 -6 -11 -8 -16 -4 -8 4 -8 -27 0 -54 1 -1 11 3 24 10 12 6 31
13 41 15 27 5 45 21 66 63 23 45 17 72 -25 122 -25 30 -38 37 -78 40 -32 4
-51 1 -58 -9z m74 -22 c5 -1 6 -5 3 -9 -8 -13 -49 -7 -54 6 -2 8 5 11 20 8 12
-3 27 -5 31 -5z m55 -161 c-7 -11 -17 -20 -22 -20 -5 0 -1 9 9 20 10 11 20 20
22 20 2 0 -2 -9 -9 -20z m-208 -4 c0 -3 -4 -8 -10 -11 -5 -3 -10 -1 -10 4 0 6
5 11 10 11 6 0 10 -2 10 -4z"/>
<path d="M3550 2779 c0 -5 5 -7 10 -4 6 3 10 8 10 11 0 2 -4 4 -10 4 -5 0 -10
-5 -10 -11z"/>
<path d="M3518 2759 c-3 -17 0 -26 9 -26 15 0 15 3 4 32 -7 18 -8 17 -13 -6z"/>
<path d="M2069 2768 c0 -2 -2 -12 -4 -23 -2 -11 -12 -25 -21 -32 -14 -10 -14
-13 -3 -13 11 0 11 -2 1 -9 -11 -7 -10 -9 3 -14 10 -5 14 -3 9 5 -5 7 -3 8 6
3 8 -5 11 -4 7 2 -4 6 1 17 11 24 15 12 16 12 6 -1 -12 -18 -12 -59 0 -79 6
-9 5 -12 -2 -7 -7 4 -9 -2 -6 -18 2 -14 0 -27 -6 -31 -6 -4 -7 1 -3 11 4 12 3
15 -6 10 -7 -4 -10 -3 -9 5 2 6 -2 13 -9 16 -7 2 -10 -3 -8 -14 2 -10 4 -23 4
-28 1 -6 12 -11 25 -11 14 0 23 3 21 6 -8 13 13 32 26 24 22 -14 37 -13 50 2
12 15 34 20 25 6 -7 -11 34 -9 52 2 9 5 10 12 3 20 -7 9 -7 17 2 26 10 10 9
11 -3 4 -21 -12 -33 -12 -50 0 -13 9 -13 8 -3 -5 13 -16 8 -29 -10 -29 -6 0
-7 3 -4 7 4 3 2 12 -4 20 -7 8 -8 18 -2 26 20 27 9 42 -30 41 -20 -1 -37 3
-37 8 0 6 -7 8 -15 4 -12 -4 -14 0 -11 19 3 14 3 25 0 25 -2 0 -4 -1 -5 -2z
m97 -73 c-1 -5 -5 -16 -9 -22 -5 -7 -5 -19 0 -25 11 -18 11 -31 1 -45 -10 -13
-33 -12 -33 2 0 6 3 9 6 8 5 -2 5 56 -1 67 -1 3 -1 10 0 15 1 6 -1 8 -3 5 -3
-3 -6 -9 -7 -15 -1 -5 -9 -18 -18 -28 -14 -16 -14 -17 0 -12 28 11 29 -12 0
-31 -21 -14 -24 -14 -14 -2 7 9 9 19 5 21 -7 4 -10 72 -4 72 1 0 18 0 40 0 21
1 38 -4 37 -10z m69 -85 c-4 -7 -13 -7 -44 -1 -2 1 2 8 9 16 10 12 16 13 26 4
8 -6 12 -15 9 -19z"/>
<path d="M2136 2691 c-4 -5 -2 -12 3 -15 5 -4 12 -2 15 3 4 5 2 12 -3 15 -5 4
-12 2 -15 -3z"/>
<path d="M2144 2625 c0 -13 3 -22 7 -19 8 4 6 30 -2 38 -3 3 -5 -5 -5 -19z"/>
<path d="M2206 2622 c-3 -5 1 -9 9 -9 8 0 12 4 9 9 -3 4 -7 8 -9 8 -2 0 -6 -4
-9 -8z"/>
<path d="M1626 2745 c4 -8 8 -15 10 -15 2 0 4 7 4 15 0 8 -4 15 -10 15 -5 0
-7 -7 -4 -15z"/>
<path d="M2034 2740 c0 -11 4 -20 8 -20 4 0 8 9 8 20 0 11 -4 20 -8 20 -4 0
-8 -9 -8 -20z"/>
<path d="M1600 2720 c0 -5 5 -10 10 -10 6 0 10 5 10 10 0 6 -4 10 -10 10 -5 0
-10 -4 -10 -10z"/>
<path d="M1700 2715 c0 -8 29 -12 39 -5 9 5 4 8 -13 8 -14 0 -26 -2 -26 -3z"/>
<path d="M1760 2710 c0 -5 5 -10 11 -10 5 0 7 5 4 10 -3 6 -8 10 -11 10 -2 0
-4 -4 -4 -10z"/>
<path d="M1815 2710 c-3 -5 -2 -10 4 -10 5 0 13 5 16 10 3 6 2 10 -4 10 -5 0
-13 -4 -16 -10z"/>
<path d="M1965 2710 c3 -5 8 -10 11 -10 2 0 4 5 4 10 0 6 -5 10 -11 10 -5 0
-7 -4 -4 -10z"/>
<path d="M1740 2690 c0 -5 5 -10 11 -10 5 0 7 5 4 10 -3 6 -8 10 -11 10 -2 0
-4 -4 -4 -10z"/>
<path d="M1785 2690 c-3 -5 -1 -10 4 -10 6 0 11 5 11 10 0 6 -2 10 -4 10 -3 0
-8 -4 -11 -10z"/>
<path d="M1605 2679 c-11 -17 0 -20 21 -4 17 13 17 14 2 15 -9 0 -20 -5 -23
-11z"/>
<path d="M2033 2650 c0 -10 8 -22 17 -27 12 -8 16 -5 16 16 1 19 -4 27 -17 28
-11 1 -17 -5 -16 -17z"/>
<path d="M2463 2645 c0 -8 4 -12 9 -9 5 3 6 10 3 15 -9 13 -12 11 -12 -6z"/>
<path d="M1680 2619 c0 -5 5 -7 10 -4 6 3 10 8 10 11 0 2 -4 4 -10 4 -5 0 -10
-5 -10 -11z"/>
<path d="M1855 2620 c-3 -5 -1 -10 4 -10 6 0 11 5 11 10 0 6 -2 10 -4 10 -3 0
-8 -4 -11 -10z"/>
<path d="M1928 2623 c7 -3 16 -2 19 1 4 3 -2 6 -13 5 -11 0 -14 -3 -6 -6z"/>
<path d="M2554 2619 c-13 -22 12 -30 31 -9 10 11 15 20 10 20 -4 0 -14 -8 -22
-17 -14 -17 -14 -17 -9 0 6 19 1 23 -10 6z"/>
<path d="M3687 2610 c3 -11 7 -20 8 -20 1 0 5 9 8 20 3 12 0 20 -8 20 -8 0
-11 -8 -8 -20z"/>
<path d="M2829 2593 c-13 -16 -12 -17 4 -4 16 13 21 21 13 21 -2 0 -10 -8 -17
-17z"/>
<path d="M1905 2590 c3 -5 8 -10 11 -10 2 0 4 5 4 10 0 6 -5 10 -11 10 -5 0
-7 -4 -4 -10z"/>
<path d="M1740 2569 c0 -15 18 -19 23 -6 3 8 -1 14 -9 14 -8 0 -14 -4 -14 -8z"/>
<path d="M1810 2570 c0 -5 5 -10 11 -10 5 0 7 5 4 10 -3 6 -8 10 -11 10 -2 0
-4 -4 -4 -10z"/>
<path d="M1730 2540 c0 -5 5 -10 11 -10 5 0 7 5 4 10 -3 6 -8 10 -11 10 -2 0
-4 -4 -4 -10z"/>
<path d="M1817 2530 c3 -11 7 -20 9 -20 2 0 4 9 4 20 0 11 -4 20 -9 20 -5 0
-7 -9 -4 -20z"/>
<path d="M4010 2525 c0 -33 15 -33 16 0 1 14 -2 25 -7 25 -5 0 -9 -11 -9 -25z"/>
<path d="M1778 2510 c-3 -16 -2 -30 1 -30 11 0 32 41 26 50 -11 19 -23 10 -27
-20z"/>
<path d="M1640 2488 c0 -4 7 -8 15 -8 8 0 15 4 15 8 0 5 -7 9 -15 9 -8 0 -15
-4 -15 -9z"/>
<path d="M1796 2470 c-6 -32 19 -110 35 -110 5 0 8 6 7 13 -2 6 3 11 10 9 8
-1 11 2 7 7 -3 6 -13 7 -23 4 -14 -5 -15 -3 -4 8 15 16 16 39 1 39 -6 0 -8 -8
-5 -17 5 -15 4 -15 -9 1 -19 25 -19 37 0 30 16 -6 19 4 9 30 -10 25 -21 19
-28 -14z"/>
<path d="M4012 2470 c0 -14 2 -19 5 -12 2 6 2 18 0 25 -3 6 -5 1 -5 -13z"/>
<path d="M1605 2470 c3 -5 8 -10 11 -10 2 0 4 5 4 10 0 6 -5 10 -11 10 -5 0
-7 -4 -4 -10z"/>
<path d="M1720 2458 c0 -11 12 -10 30 2 12 7 10 9 -8 7 -12 0 -22 -5 -22 -9z"/>
<path d="M1750 2430 c0 -5 5 -10 10 -10 6 0 10 5 10 10 0 6 -4 10 -10 10 -5 0
-10 -4 -10 -10z"/>
<path d="M4011 2424 c0 -11 3 -14 6 -6 3 7 2 16 -1 19 -3 4 -6 -2 -5 -13z"/>
<path d="M1861 2414 c0 -11 3 -14 6 -6 3 7 2 16 -1 19 -3 4 -6 -2 -5 -13z"/>
<path d="M1766 2395 c4 -8 10 -12 15 -9 11 6 2 24 -11 24 -5 0 -7 -7 -4 -15z"/>
<path d="M1610 2373 c0 -5 5 -15 10 -23 8 -12 10 -11 10 8 0 12 -4 22 -10 22
-5 0 -10 -3 -10 -7z"/>
<path d="M4010 2359 c0 -5 5 -7 10 -4 6 3 10 8 10 11 0 2 -4 4 -10 4 -5 0 -10
-5 -10 -11z"/>
<path d="M1830 2335 c7 -8 19 -15 27 -15 12 0 12 2 -1 15 -8 8 -20 15 -27 15
-9 0 -8 -4 1 -15z"/>
<path d="M4054 2295 c0 -13 3 -22 7 -19 8 4 6 30 -2 38 -3 3 -5 -5 -5 -19z"/>
<path d="M1701 2294 c0 -11 3 -14 6 -6 3 7 2 16 -1 19 -3 4 -6 -2 -5 -13z"/>
<path d="M1770 2306 c0 -2 8 -10 18 -17 15 -13 16 -12 3 4 -13 16 -21 21 -21
13z"/>
<path d="M1840 2290 c0 -5 5 -10 10 -10 6 0 10 5 10 10 0 6 -4 10 -10 10 -5 0
-10 -4 -10 -10z"/>
<path d="M1626 2281 c-4 -7 -5 -15 -2 -18 9 -9 19 4 14 18 -4 11 -6 11 -12 0z"/>
<path d="M1705 2260 c-3 -5 -1 -10 4 -10 6 0 11 5 11 10 0 6 -2 10 -4 10 -3 0
-8 -4 -11 -10z"/>
<path d="M1770 2260 c0 -5 5 -10 10 -10 6 0 10 5 10 10 0 6 -4 10 -10 10 -5 0
-10 -4 -10 -10z"/>
<path d="M1861 2249 c0 -8 4 -23 9 -34 8 -17 9 -16 7 7 -3 28 -18 53 -16 27z"/>
<path d="M1700 2230 c0 -5 7 -10 16 -10 8 0 12 5 9 10 -3 6 -10 10 -16 10 -5
0 -9 -4 -9 -10z"/>
<path d="M2880 2220 c0 -5 5 -10 10 -10 6 0 10 5 10 10 0 6 -4 10 -10 10 -5 0
-10 -4 -10 -10z"/>
<path d="M1886 2195 c-3 -10 -4 -20 -1 -23 3 -3 5 1 5 9 1 8 7 3 15 -11 8 -14
14 -20 14 -15 0 6 -6 21 -13 34 -12 21 -14 21 -20 6z"/>
<path d="M2005 2200 c3 -5 8 -10 11 -10 2 0 4 5 4 10 0 6 -5 10 -11 10 -5 0
-7 -4 -4 -10z"/>
<path d="M4065 2201 c-3 -5 -2 -12 3 -15 5 -3 9 1 9 9 0 17 -3 19 -12 6z"/>
<path d="M2054 2149 c0 -10 4 -19 8 -19 4 0 8 6 8 14 0 8 -4 17 -8 20 -4 2 -8
-4 -8 -15z"/>
<path d="M2320 2150 c0 -5 5 -10 11 -10 5 0 7 5 4 10 -3 6 -8 10 -11 10 -2 0
-4 -4 -4 -10z"/>
<path d="M1770 2146 c0 -2 7 -9 15 -16 9 -7 15 -8 15 -2 0 5 -7 12 -15 16 -8
3 -15 4 -15 2z"/>
<path d="M2884 2138 c3 -10 -1 -18 -12 -21 -12 -3 -11 -5 6 -6 24 -1 27 6 11
29 -9 13 -10 13 -5 -2z"/>
<path d="M2200 2130 c0 -5 5 -10 10 -10 6 0 10 5 10 10 0 6 -4 10 -10 10 -5 0
-10 -4 -10 -10z"/>
<path d="M2260 2109 c0 -5 5 -7 10 -4 6 3 10 8 10 11 0 2 -4 4 -10 4 -5 0 -10
-5 -10 -11z"/>
<path d="M1660 2099 c0 -5 5 -7 10 -4 6 3 10 8 10 11 0 2 -4 4 -10 4 -5 0 -10
-5 -10 -11z"/>
<path d="M1820 2099 c0 -5 5 -7 10 -4 6 3 10 8 10 11 0 2 -4 4 -10 4 -5 0 -10
-5 -10 -11z"/>
<path d="M1900 2103 c0 -5 5 -15 10 -23 7 -12 9 -10 7 8 -1 19 -17 33 -17 15z"/>
<path d="M2010 2090 c0 -5 5 -10 11 -10 5 0 7 5 4 10 -3 6 -8 10 -11 10 -2 0
-4 -4 -4 -10z"/>
<path d="M2873 2086 c-16 -19 -4 -29 13 -11 8 7 14 16 14 19 0 10 -15 6 -27
-8z"/>
<path d="M2351 2074 c0 -11 3 -14 6 -6 3 7 2 16 -1 19 -3 4 -6 -2 -5 -13z"/>
<path d="M2806 2077 c3 -10 9 -15 12 -12 3 3 0 11 -7 18 -10 9 -11 8 -5 -6z"/>
<path d="M2421 2064 c0 -11 3 -14 6 -6 3 7 2 16 -1 19 -3 4 -6 -2 -5 -13z"/>
<path d="M2495 2070 c-3 -5 -1 -10 4 -10 6 0 11 5 11 10 0 6 -2 10 -4 10 -3 0
-8 -4 -11 -10z"/>
</g>
</svg>
